<svg xmlns="http://www.w3.org/2000/svg" xmlns:xlink="http://www.w3.org/1999/xlink" viewBox="0 0 108 108">
  <defs>
    <style>
      .cls-1, .cls-4 {
        fill: none;
      }

      .cls-2 {
        opacity: 0.12;
        fill: url(#linear-gradient);
      }

      .cls-3 {
        fill: #7d5ab5;
      }

      .cls-4 {
        stroke: #7d5ab5;
        stroke-linecap: round;
        stroke-width: 2.5px;
      }
    </style>
    <linearGradient id="linear-gradient" x1="0.5" x2="0.5" y2="1" gradientUnits="objectBoundingBox">
      <stop offset="0" stop-color="#004aff" stop-opacity="0"/>
      <stop offset="1" stop-color="#004aff"/>
    </linearGradient>
  </defs>
  <g id="Group_3031" data-name="Group 3031" transform="translate(-2291 -6508)">
    <rect id="Rectangle_1060" data-name="Rectangle 1060" class="cls-1" width="108" height="108" transform="translate(2291 6508)"/>
    <circle id="Ellipse_220" data-name="Ellipse 220" class="cls-2" cx="38.631" cy="38.631" r="38.631" transform="translate(2321.739 6523)"/>
    <g id="Group_2984" data-name="Group 2984" transform="translate(0 -105.002)">
      <path id="Path_3398" data-name="Path 3398" class="cls-3" d="M17.343,84.4h-9.2C1.986,84.331.132,82.477.132,76.255V41.57H0V8.142C.066,1.853,1.92,0,8.274,0H25.22C37,0,49.513,0,62.222.132a9.148,9.148,0,0,1,5.626,2.251c4.965,4.567,9.929,9.466,14.7,14.629a8.9,8.9,0,0,1,2.118,5.362c.132,13.57.132,27.4.132,40.709V74.931c0,7.678-1.721,9.4-9.532,9.4H24.293C21.976,84.4,19.66,84.4,17.343,84.4Zm43.622-2.913H75.527c4.7,0,6.553-1.787,6.553-6.288.066-14.894.066-29.522,0-43.622,0-4.5-1.853-6.288-6.553-6.355H66.26c-5.229,0-7.612-2.383-7.745-7.612q-.1-2.879,0-5.759V9c0-4.832-1.522-6.355-6.288-6.355h-9.2c-10.657-.066-21.712,0-33.759,0-4.7,0-6.421,1.721-6.421,6.355,0,22.043-.066,44.085-.066,66.128,0,4.832,1.456,6.288,6.355,6.355h51.83ZM63.016,3.111c-.927,0-1.853.728-1.92,2.714V7.546a81.767,81.767,0,0,0,.2,9.863c.132,1.589,1.39,4.17,2.979,4.7a24.034,24.034,0,0,0,7.612,1.059h0c2.052,0,4.038-.132,6.156-.331.861-.066,1.655-.132,2.515-.2l.794-.066-.2-.794c-.132-.463-.2-.794-.265-1.059a1.707,1.707,0,0,0-.4-1.059l-2.78-2.846c-4.17-4.236-8.473-8.605-12.775-12.775A3.043,3.043,0,0,0,63.016,3.111Z" transform="translate(2291 6624.777)"/>
      <g id="Group_2983" data-name="Group 2983" transform="translate(2307.244 6661.939)">
        <path id="Path_3383" data-name="Path 3383" class="cls-3" d="M40.93,122.556c-3.1-.671-6.335-1.217-8.349,2.1a6.135,6.135,0,0,0,.126,6.922c2.056,3.063,5.118,2.475,8.1,1.93,1.51,3.147,1.3,3.524-2.224,4.07-4.321.629-8.307-1.007-10.195-4.2a10.627,10.627,0,0,1,.8-11.453c2.979-3.86,8.643-4.111,11.831-3.063C42.1,119.2,42.062,119.913,40.93,122.556Z" transform="translate(-27.074 -118.332)"/>
        <g id="Group_2940" data-name="Group 2940" transform="translate(17.39 3.436)">
          <line id="Line_2517" data-name="Line 2517" class="cls-4" x2="12.167" transform="translate(0 5.874)"/>
          <line id="Line_2518" data-name="Line 2518" class="cls-4" x2="12.167" transform="translate(6.293) rotate(90)"/>
        </g>
        <g id="Group_2941" data-name="Group 2941" transform="translate(35.85 3.436)">
          <line id="Line_2517-2" data-name="Line 2517" class="cls-4" x2="12.167" transform="translate(0 5.874)"/>
          <line id="Line_2518-2" data-name="Line 2518" class="cls-4" x2="12.167" transform="translate(6.293) rotate(90)"/>
        </g>
      </g>
    </g>
  </g>
</svg>
