<svg xmlns="http://www.w3.org/2000/svg" xmlns:xlink="http://www.w3.org/1999/xlink" viewBox="0 0 108.149 108">
  <defs>
    <style>
      .cls-1, .cls-3 {
        fill: none;
      }

      .cls-2 {
        opacity: 0.12;
        fill: url(#linear-gradient);
      }

      .cls-3 {
        stroke: #7d5ab5;
        stroke-linejoin: round;
        stroke-miterlimit: 10;
        stroke-width: 2.5px;
      }
    </style>
    <linearGradient id="linear-gradient" x1="0.5" x2="0.5" y2="1" gradientUnits="objectBoundingBox">
      <stop offset="0" stop-color="#004aff" stop-opacity="0"/>
      <stop offset="1" stop-color="#004aff"/>
    </linearGradient>
  </defs>
  <g id="Group_2981" data-name="Group 2981" transform="translate(-5473.851 -732)">
    <rect id="Rectangle_1065" data-name="Rectangle 1065" class="cls-1" width="108" height="108" transform="translate(5474 732)"/>
    <path id="Path_3394" data-name="Path 3394" class="cls-2" d="M36,0A36,36,0,1,1,0,36,36,36,0,0,1,36,0Z" transform="translate(5510 750)"/>
    <g id="Group_2970" data-name="Group 2970" transform="translate(1668.601 -840.47)">
      <path id="Path_1627" data-name="Path 1627" class="cls-3" d="M3819.1,1630.009v39.544h29.132v-17.169h9.194a13.331,13.331,0,0,0,13.292-13.292v-4.431h6.092l-6.092-12.406v-19.163a13.331,13.331,0,0,0-13.292-13.292h-4.1" transform="translate(1.357 0.894)"/>
      <path id="Path_1628" data-name="Path 1628" class="cls-3" d="M3851.915,1604.207a22.707,22.707,0,1,0-22.707,22.708,21.938,21.938,0,0,0,6.646-1l7.865,9.083v-13.4A22.2,22.2,0,0,0,3851.915,1604.207Z"/>
      <path id="Path_1629" data-name="Path 1629" class="cls-3" d="M3818.4,1603.386l6.757,6.757s9.194-8.972,15.064-14.843" transform="translate(1.282 1.486)"/>
    </g>
  </g>
</svg>
