<svg xmlns="http://www.w3.org/2000/svg" xmlns:xlink="http://www.w3.org/1999/xlink" viewBox="0 0 423 301.195">
  <defs>
    <style>
      .cls-1, .cls-3, .cls-4, .cls-5, .cls-7, .cls-9 {
        fill: none;
      }

      .cls-2 {
        opacity: 0.12;
        fill: url(#linear-gradient);
      }

      .cls-3, .cls-4, .cls-5, .cls-6, .cls-7, .cls-9 {
        stroke: #fff;
      }

      .cls-3, .cls-4, .cls-5 {
        stroke-linejoin: round;
        stroke-miterlimit: 10;
      }

      .cls-3, .cls-4 {
        stroke-width: 5px;
      }

      .cls-4, .cls-5, .cls-7, .cls-9 {
        stroke-linecap: round;
      }

      .cls-5, .cls-9 {
        stroke-width: 3px;
      }

      .cls-6, .cls-8 {
        fill: #fff;
      }

      .cls-6, .cls-7 {
        opacity: 0.15;
      }

      .cls-7 {
        stroke-width: 6px;
      }

      .cls-10 {
        stroke: none;
      }
    </style>
    <linearGradient id="linear-gradient" x1="0.5" x2="0.5" y2="1" gradientUnits="objectBoundingBox">
      <stop offset="0" stop-color="#fff" stop-opacity="0"/>
      <stop offset="1" stop-color="#fff"/>
    </linearGradient>
  </defs>
  <g id="Group_3033" data-name="Group 3033" transform="translate(793 -420)">
    <rect id="Rectangle_4268" data-name="Rectangle 4268" class="cls-1" width="423" height="300" transform="translate(-793 420)"/>
    <g id="Group_3032" data-name="Group 3032" transform="translate(-446 304)">
      <rect id="Rectangle_1050" data-name="Rectangle 1050" class="cls-1" width="241" height="241" transform="translate(-165 146)"/>
      <circle id="Ellipse_106" data-name="Ellipse 106" class="cls-2" cx="105" cy="105" r="105" transform="translate(-134 162)"/>
      <g id="Group_2532" data-name="Group 2532" transform="translate(-18 0.376)">
        <g id="Group_440" data-name="Group 440" transform="translate(-144.543 190.624)">
          <g id="Group_439" data-name="Group 439">
            <path id="Path_734" data-name="Path 734" class="cls-3" d="M95.551,24.759V16.8H1.3v90.062H95.551V88.012" transform="translate(-1.3 15.664)"/>
            <path id="Path_735" data-name="Path 735" class="cls-4" d="M95.451,7.583A6.171,6.171,0,0,0,89.167,1.3H7.483A6.171,6.171,0,0,0,1.2,7.583V33.764H95.451Z" transform="translate(-1.2 -1.3)"/>
            <path id="Path_736" data-name="Path 736" class="cls-4" d="M1.3,59.8V82.839a6.171,6.171,0,0,0,6.283,6.283H89.267a6.171,6.171,0,0,0,6.283-6.283V59.8H1.3Z" transform="translate(-1.091 62.726)"/>
          </g>
          <line id="Line_216" data-name="Line 216" class="cls-4" x2="22.411" transform="translate(37.072 16.127)"/>
          <line id="Line_217" data-name="Line 217" class="cls-4" x2="17.384" transform="translate(42.099 137.187)"/>
          <line id="Line_218" data-name="Line 218" class="cls-4" y2="34.349" transform="translate(17.593 49.22)"/>
          <line id="Line_219" data-name="Line 219" class="cls-4" y2="7.75" transform="translate(17.593 95.926)"/>
        </g>
        <g id="Group_442" data-name="Group 442" transform="translate(-59.508 245.08)">
          <g id="Group_441" data-name="Group 441">
            <path id="Path_737" data-name="Path 737" class="cls-4" d="M147.54,34.7H49.1L59.572,86.224h75.4Z" transform="translate(-33.81 -19.201)"/>
            <path id="Path_738" data-name="Path 738" class="cls-4" d="M54.1,59.3s1.047,12.567,11.31,12.567h54.875" transform="translate(-28.338 7.723)"/>
            <path id="Path_739" data-name="Path 739" class="cls-4" d="M57.09,42.8,53.738,27.3H41.8" transform="translate(-41.8 -27.3)"/>
          </g>
          <path id="Path_740" data-name="Path 740" class="cls-3" d="M72.591,70.852a5.446,5.446,0,1,1-5.446-5.446A5.28,5.28,0,0,1,72.591,70.852Z" transform="translate(-20.02 14.393)"/>
          <path id="Path_741" data-name="Path 741" class="cls-3" d="M88.891,70.846a5.408,5.408,0,0,1-5.446,5.446A5.545,5.545,0,0,1,78,70.846a5.446,5.446,0,0,1,10.891,0Z" transform="translate(-2.18 14.399)"/>
        </g>
        <g id="Group_443" data-name="Group 443" transform="translate(-2.957 223.088)">
          <path id="Path_742" data-name="Path 742" class="cls-5" d="M76.7,16.8,89.267,28.529,76.7,41.305" transform="translate(-60.154 -16.8)"/>
          <line id="Line_220" data-name="Line 220" class="cls-5" x1="29.113" transform="translate(0 11.729)"/>
        </g>
        <g id="Group_444" data-name="Group 444" transform="translate(-27.253 198.373)">
          <path id="Path_743" data-name="Path 743" class="cls-5" d="M69.767,29.715,57.2,17.986,69.767,5" transform="translate(-57.2 -5)"/>
          <line id="Line_221" data-name="Line 221" class="cls-5" x2="29.113" transform="translate(0 12.986)"/>
        </g>
      </g>
    </g>
    <g id="Group_3031" data-name="Group 3031" transform="translate(-173.725 306.83)">
      <g id="Ellipse_93" data-name="Ellipse 93" class="cls-6" transform="translate(-389.749 168.141)">
        <circle class="cls-10" cx="5.588" cy="5.588" r="5.588"/>
        <circle class="cls-1" cx="5.588" cy="5.588" r="5.088"/>
      </g>
      <g id="Ellipse_219" data-name="Ellipse 219" class="cls-6" transform="translate(-461.749 130.141)">
        <circle class="cls-10" cx="3.588" cy="3.588" r="3.588"/>
        <circle class="cls-1" cx="3.588" cy="3.588" r="3.088"/>
      </g>
      <g id="Ellipse_97" data-name="Ellipse 97" class="cls-6" transform="translate(-538.053 294.349)">
        <circle class="cls-10" cx="5.588" cy="5.588" r="5.588"/>
        <circle class="cls-1" cx="5.588" cy="5.588" r="5.088"/>
      </g>
      <g id="Ellipse_98" data-name="Ellipse 98" class="cls-6" transform="translate(-311.257 390.654)">
        <circle class="cls-10" cx="5.588" cy="5.588" r="5.588"/>
        <circle class="cls-1" cx="5.588" cy="5.588" r="5.088"/>
      </g>
      <g id="Ellipse_94" data-name="Ellipse 94" class="cls-6" transform="translate(-553.72 190.229)">
        <ellipse class="cls-10" cx="3.726" cy="3.726" rx="3.726" ry="3.726"/>
        <ellipse class="cls-1" cx="3.726" cy="3.726" rx="3.226" ry="3.226"/>
      </g>
      <g id="Ellipse_96" data-name="Ellipse 96" class="cls-6" transform="translate(-400.091 115.17)">
        <ellipse class="cls-10" cx="3.726" cy="3.726" rx="3.726" ry="3.726"/>
        <ellipse class="cls-1" cx="3.726" cy="3.726" rx="3.226" ry="3.226"/>
      </g>
      <line id="Line_161" data-name="Line 161" class="cls-7" x2="86.619" transform="translate(-526.862 387.011)"/>
      <line id="Line_2516" data-name="Line 2516" class="cls-7" x2="51.362" transform="translate(-510.862 155.011)"/>
      <line id="Line_174" data-name="Line 174" class="cls-7" x2="147.159" transform="translate(-616.275 356.276)"/>
      <line id="Line_164" data-name="Line 164" class="cls-7" x2="92.07" transform="translate(-558.775 251.647)"/>
      <line id="Line_165" data-name="Line 165" class="cls-7" x2="46.313" transform="translate(-596.088 226.019)"/>
      <line id="Line_169" data-name="Line 169" class="cls-7" x2="8.382" transform="translate(-401.125 411.364)"/>
      <line id="Line_162" data-name="Line 162" class="cls-7" x2="16.825" transform="translate(-496.126 182.107)"/>
      <line id="Line_173" data-name="Line 173" class="cls-7" x2="16.825" transform="translate(-405.341 373.188)"/>
      <line id="Line_166" data-name="Line 166" class="cls-7" x2="16.825" transform="translate(-502.459 287.723) rotate(-45)"/>
      <line id="Line_171" data-name="Line 171" class="cls-7" x2="16.825" transform="translate(-315.407 145.632) rotate(-45)"/>
      <line id="Line_163" data-name="Line 163" class="cls-7" x2="16.825" transform="translate(-487.744 173.724) rotate(90)"/>
      <line id="Line_172" data-name="Line 172" class="cls-7" x2="16.825" transform="translate(-396.959 364.805) rotate(90)"/>
      <line id="Line_167" data-name="Line 167" class="cls-7" x2="16.825" transform="translate(-502.459 275.867) rotate(45)"/>
      <line id="Line_170" data-name="Line 170" class="cls-7" x2="16.825" transform="translate(-315.407 133.777) rotate(45)"/>
    </g>
    <path id="Path_15187" data-name="Path 15187" class="cls-8" d="M23.052,1l-4.694,9.577L12.935,1H6.7L0,16.525H6.259l3.993-9.28,4.4,7.866.777,1.387H21.7L29.27,1ZM17.535,12.168l.89,1.012S17.549,12.2,17.535,12.168Z" transform="translate(-574.343 559.814)"/>
    <line id="Line_7847" data-name="Line 7847" class="cls-9" x2="32" y2="32" transform="translate(-569.5 579.5)"/>
    <line id="Line_7848" data-name="Line 7848" class="cls-9" x2="14" y2="14" transform="translate(-542.5 564.5)"/>
  </g>
</svg>
