<svg xmlns="http://www.w3.org/2000/svg" viewBox="0 0 15.7 18.44">
  <defs>
    <style>
      .cls-1 {
        fill: #fff;
        opacity: 0.5;
      }
    </style>
  </defs>
  <path id="android" class="cls-1" d="M5.207,18.022a1.729,1.729,0,0,1-.362-1.013V14.695H4.122a1.39,1.39,0,0,1-.868-.289,1.238,1.238,0,0,1-.506-.94V6.015h10.2v7.378a1.238,1.238,0,0,1-1.23,1.3,2.965,2.965,0,0,1-.8.072v2.242a1.451,1.451,0,0,1-.289.94,1.013,1.013,0,0,1-1.664,0,1.387,1.387,0,0,1-.289-.868V14.767H7.16v2.315A1.724,1.724,0,0,1,6.8,18.094a.953.953,0,0,1-.733.346,1.143,1.143,0,0,1-.858-.418ZM13.742,12.6a1.454,1.454,0,0,1-.289-.94V7.245a1.112,1.112,0,0,1,.362-.94,1.024,1.024,0,0,1,1.591,0,1.533,1.533,0,0,1,.289,1.013v4.34a1.454,1.454,0,0,1-.289.94,1.013,1.013,0,0,1-1.664,0ZM.506,12.742A1.3,1.3,0,0,1,0,11.657V7.245A1.428,1.428,0,0,1,.434,6.232a.967.967,0,0,1,1.447,0,1.275,1.275,0,0,1,.434.94v4.484a1.3,1.3,0,0,1-.506,1.085.99.99,0,0,1-.641.245,1.063,1.063,0,0,1-.661-.245ZM12.657,5.726H2.965c-.217,0-.289,0-.289-.217A3.79,3.79,0,0,1,4.267,2.254c.289-.217.651-.434,1.013-.651-.217-.362-.434-.8-.651-1.157,0-.072-.072-.145-.072-.217s0-.217.072-.217a.252.252,0,0,0,.145.072c.072,0,.072.072.072.145a10.907,10.907,0,0,0,.723,1.23,6.007,6.007,0,0,1,4.484,0L10.7.373c.072-.145.145-.434.362-.362.217.145,0,.362-.072.506-.217.362-.362.723-.579,1.085,1.881,1.157,2.748,2.6,2.459,4.123ZM9.764,3.483a.434.434,0,1,0,.434-.434.434.434,0,0,0-.434.434Zm-4.7,0a.467.467,0,0,0,.434.434.467.467,0,0,0,.434-.434A.467.467,0,0,0,5.5,3.049a.417.417,0,0,0-.434.434Z" transform="translate(0.002 0)"/>
</svg>
