<svg xmlns="http://www.w3.org/2000/svg" viewBox="0 0 16.34 16.343">
  <defs>
    <style>
      .cls-1 {
        fill: #fff;
        opacity: 0.5;
      }
    </style>
  </defs>
  <path id="PWA" class="cls-1" d="M8.177,16.325a8.167,8.167,0,1,1,3.18-.642A8.171,8.171,0,0,1,8.177,16.325Zm-.512-5.919h.382c.092,0,.174-.012.174-.157a.014.014,0,0,1,0-.009.345.345,0,0,0,.085-.187.635.635,0,0,1,.032-.109,1.44,1.44,0,0,0,.06-.188c.012-.044.024-.09.039-.133s.03-.08.046-.118.037-.088.051-.133c.024-.076.044-.152.065-.234.009-.034.018-.069.027-.1l.02.014c.014.009.025.017.029.026.021.06.039.121.057.18s.028.091.043.136c.071.216.145.435.21.628.009.028.02.055.032.081s.019.045.027.068.021.058.031.087.025.074.04.109a.074.074,0,0,0,.054.038c.368,0,.728,0,1.111,0,.009-.03.015-.062.022-.093a.524.524,0,0,1,.062-.184.7.7,0,0,0,.084-.219c.01-.039.02-.078.034-.116.028-.077.054-.156.078-.233.017-.054.035-.109.054-.163s.029-.079.043-.118c.02-.054.041-.109.059-.165s.037-.125.054-.186.044-.155.069-.23c.03-.092.063-.184.1-.272s.062-.171.09-.257c.042-.127.083-.257.122-.383.028-.092.057-.184.087-.276.057-.174.115-.349.172-.518l.038-.114a.368.368,0,0,1,.026-.057.371.371,0,0,0,.027-.061c.009-.029.016-.059.022-.089s.013-.06.022-.089c.029-.1.06-.2.089-.293l.052-.168.007-.023c.012-.038.023-.073.038-.109l.105-.247h-.389c-.366,0-.745,0-1.117,0-.073,0-.115.017-.122.1a.463.463,0,0,1-.041.142l-.009.023c-.009.023-.02.045-.031.066a.572.572,0,0,0-.04.092c-.014.044-.025.089-.035.134a1.694,1.694,0,0,1-.046.168c-.029.086-.062.173-.094.256s-.063.166-.092.251c-.019.056-.034.115-.049.173-.01.041-.021.083-.033.123a.087.087,0,0,1-.03.039l-.02.02c-.014-.048-.027-.092-.039-.137C9.63,7.124,9.612,7.061,9.591,7s-.04-.112-.061-.167-.042-.111-.061-.167-.029-.091-.042-.135-.032-.106-.05-.159-.033-.088-.05-.13-.039-.1-.056-.148-.026-.086-.037-.129-.027-.1-.045-.151c-.011-.03-.05-.069-.076-.069l-.463,0c-.154,0-.309,0-.463,0a.105.105,0,0,0-.076.056,3.764,3.764,0,0,1-.161.476,2.466,2.466,0,0,0-.115.366c-.013.049-.026.1-.04.149l-.016.056c-.019.067-.039.136-.062.2s-.053.141-.087.221a.134.134,0,0,1-.031.04l-.02.022c-.008-.024-.013-.046-.019-.066s-.012-.044-.019-.064c-.019-.055-.038-.109-.058-.163-.029-.081-.059-.164-.086-.248-.022-.066-.041-.135-.059-.2s-.039-.138-.061-.205c-.065-.2-.133-.4-.192-.565a.1.1,0,0,0-.107-.082c-.2,0-.422,0-.708,0H5.562a.257.257,0,0,0-.041,0,.353.353,0,0,1-.043,0l.073.23L5.62,6.2l.069.219.021.069c.018.06.036.122.057.181s.036.093.054.138.046.11.064.166.035.114.05.17.028.1.044.151c.026.082.056.164.085.243.02.056.041.115.06.171.042.121.082.245.12.365l.02.062c.032.1.065.207.1.31.008.023.017.046.025.069s.023.061.033.092c.027.09.053.182.078.272l.006.02c.008.027.014.056.02.084a.473.473,0,0,0,.062.179.565.565,0,0,1,.084.209.963.963,0,0,0,.034.117c.026.064.049.132.071.2l.029.087c.041.118.074.212.1.3l.056.169c.019.056.037.113.056.169h.645ZM13.333,5.74c-.184,0-.4,0-.621,0a.122.122,0,0,0-.083.069c-.041.095-.078.193-.113.287l-.041.109c-.031.078-.059.148-.085.218-.013.038-.026.077-.039.115-.02.059-.04.121-.063.18-.014.036-.03.073-.046.108s-.035.078-.05.119c-.023.063-.046.129-.067.192s-.043.129-.067.192c-.016.043-.035.084-.053.125s-.035.078-.05.118c-.024.067-.047.136-.069.2-.03.088-.06.179-.094.267-.023.061-.051.122-.077.181s-.046.1-.066.153c-.066.168-.134.341-.2.514-.041.112-.079.227-.116.339l-.038.114c-.008.023-.015.046-.023.068-.017.052-.034.105-.056.156s-.033.072-.05.107-.046.1-.066.145c-.027.071-.05.144-.073.215s-.04.121-.061.181a1.275,1.275,0,0,1-.052.117c-.011.023-.023.046-.034.072h.738c.26,0,.477,0,.683,0a.109.109,0,0,0,.082-.053c.03-.08.056-.161.082-.248.012-.038.023-.075.036-.113h.052c.456,0,.887,0,1.318,0a.1.1,0,0,1,.071.049c.033.085.063.171.091.255.012.036.023.071.036.106h1.475L14.273,7.04v0l-.491-1.3h-.448Zm-11.558,0V10.4h1.5V9.312l.253-.032c.184-.023.359-.043.536-.076a2.119,2.119,0,0,0,.4-.135l.032-.013a1.511,1.511,0,0,0,.914-1.382c0-.038.006-.075.01-.112A.682.682,0,0,0,5.4,7.39a1.118,1.118,0,0,1-.014-.113,1.282,1.282,0,0,0-.156-.588A1.61,1.61,0,0,0,4.9,6.244a.546.546,0,0,1-.048-.05.345.345,0,0,0-.077-.071c-.1-.058-.206-.107-.309-.154l-.02-.009-.012-.006a1.933,1.933,0,0,0-.25-.1,1.345,1.345,0,0,0-.193-.038L3.94,5.8l-.129-.021a2.27,2.27,0,0,0-.35-.041c-.21,0-.44-.005-.725-.005H1.872ZM13.517,8.963h-.592a1.984,1.984,0,0,1,.171-.488,2.907,2.907,0,0,0,.125-.305c.035.1.078.2.119.293a2.446,2.446,0,0,1,.177.5ZM3.377,8.048a.331.331,0,0,1-.1-.014V7.008a.523.523,0,0,1,.1-.01.47.47,0,0,1,.416.2.61.61,0,0,1,.065.41c0,.018-.008.036-.011.054a.371.371,0,0,1-.107.236.6.6,0,0,1-.115.071l-.007,0a.552.552,0,0,1-.248.076Z" transform="translate(-0.01 0.018)"/>
</svg>
