<svg xmlns="http://www.w3.org/2000/svg" viewBox="0 0 15.84 15.913">
  <defs>
    <style>
      .cls-1 {
        fill: #fff;
        opacity: 0.5;
      }
    </style>
  </defs>
  <path id="windows" class="cls-1" d="M13.525,15.551c-1.374-.217-2.821-.434-4.267-.651a15.824,15.824,0,0,0-1.808-.289.156.156,0,0,1-.145-.145V8.39c2.821,0,5.642,0,8.535.072v7.45C15.044,15.768,14.321,15.7,13.525,15.551ZM0,13.526V8.39H6.365v6.076C4.267,14.1,2.1,13.815,0,13.526Zm0-6V2.315c2.1-.362,4.267-.651,6.365-.94V7.522ZM7.305,7.45V1.23C10.126.8,12.947.434,15.84,0V7.45Z"/>
</svg>
