<svg xmlns="http://www.w3.org/2000/svg" viewBox="0 0 14.556 17.656">
  <defs>
    <style>
      .cls-1 {
        fill: #fff;
        opacity: 0.5;
      }
    </style>
  </defs>
  <path id="linux" class="cls-1" d="M10.56,17.64a.579.579,0,0,1-.651-.506,3.739,3.739,0,0,1-.145-.8c.072-.579.072-1.085.145-1.664a10.694,10.694,0,0,0,.072-1.519c0-.362.217-.506.579-.506.145,0,.289.072.289.217a.265.265,0,0,1,.072.217c.072.434.217.579.651.579a.988.988,0,0,0,.8-.289c.145-.145.217-.289.362-.362.072-.072.145-.072.217-.145.217-.145.362,0,.362.217a1.308,1.308,0,0,0,.723,1.374,1.269,1.269,0,0,1,.362.289.482.482,0,0,1,0,.723.723.723,0,0,1-.362.289,7.631,7.631,0,0,0-1.881,1.447,1.429,1.429,0,0,1-1.013.434Zm-6.8-.217A20.236,20.236,0,0,0,.94,16.7c-.217-.072-.506-.217-.723-.289S0,16.193,0,15.976a12.821,12.821,0,0,0,.072-1.664v-.289a.459.459,0,0,1,.362-.434c.145,0,.289-.072.434-.072a1.1,1.1,0,0,0,.8-.506,1.512,1.512,0,0,1,.289-.434.562.562,0,0,1,.289-.289.545.545,0,0,1,.579.072,6.521,6.521,0,0,1,.651.723,21.731,21.731,0,0,1,1.881,2.893.549.549,0,0,1,.145.289.651.651,0,0,1-.072.362,1.337,1.337,0,0,1-1.266.859,1.255,1.255,0,0,1-.4-.063Zm1.953-1.447a4.975,4.975,0,0,0,3.978-1.085c-.072.651-.072,1.374-.145,2.1a10.534,10.534,0,0,0-3.689.072.971.971,0,0,0-.145-1.085Zm-.8-1.591c-.434-.651-.868-1.23-1.3-1.881a7.788,7.788,0,0,0-.651-.8.543.543,0,0,0-.868,0v.145a.7.7,0,0,1-.072-.651c.072-.072.072-.217.145-.289.289-.651.506-1.23.8-1.808a6.786,6.786,0,0,1,.868-1.591c.289-.434.651-.8.94-1.23a.539.539,0,0,0,.072-.362c0-1.23-.217-2.315-.145-3.616A2.382,2.382,0,0,1,6.727.063,2.861,2.861,0,0,1,10.2,2.378a4.123,4.123,0,0,1,.072.94,3.761,3.761,0,0,0,.506,2.315l1.736,2.6a5.822,5.822,0,0,1,1.013,2.387,2.7,2.7,0,0,1-.145,1.3.072.072,0,0,1-.072.072,4.007,4.007,0,0,0-.579.362,3.146,3.146,0,0,1-.506.434,1.167,1.167,0,0,1-.651.217c-.217-.072-.362-.145-.434-.362A1.3,1.3,0,0,0,10.849,12v-.145A12.08,12.08,0,0,0,10.7,9.539a4.118,4.118,0,0,0-.289-.868c-.506-1.085-.94-2.17-1.447-3.255V5.271c0-.145.145-.362.145-.506s0-.289-.217-.362c-.145-.072-.217-.072-.362-.145A1.163,1.163,0,0,0,8.824,3.1a.986.986,0,0,0-.868-.723.919.919,0,0,0-.8.8.919.919,0,0,0-.072.434H6.437V3.1a3.567,3.567,0,0,0-.217-.506.474.474,0,0,0-.8,0,1.141,1.141,0,0,0-.289.94,1.085,1.085,0,0,0,.289.8L5.352,4.4a.579.579,0,0,0-.145.723c.289.362.145.8.145,1.157l-.072.072a2.666,2.666,0,0,0-.8,1.374,6.876,6.876,0,0,1-.651,1.519,3.874,3.874,0,0,0-.506,2.387.514.514,0,0,0,.217.434c.506.434,1.085.868,1.591,1.3a2.208,2.208,0,0,1,.362.506.392.392,0,0,1-.289.579.107.107,0,0,1-.078.03.34.34,0,0,1-.211-.1Zm1.23-8.607L5.569,5.2a.482.482,0,0,1,.072-.723c.072-.145.217-.217.362-.362a.072.072,0,0,0,.072-.072c-.217.072-.289,0-.362-.145a.8.8,0,0,1,0-.579.278.278,0,0,1,.506,0,.579.579,0,0,1-.145.723c.072-.072.145-.072.217-.145a.987.987,0,0,1,.868-.145l.434.217a.561.561,0,0,1-.145-.579A.48.48,0,0,1,7.811,3.1a.37.37,0,0,1,.362.289c.145.362,0,.579-.362.723a4.6,4.6,0,0,0,.651.289c.217.145.217.217.217.362a.545.545,0,0,1-.289.506l-1.085.651a.978.978,0,0,1-1.157-.145Zm.506-.362A3.948,3.948,0,0,0,8.39,4.548a.072.072,0,0,0,.072-.072c-.145.072-.217.072-.289.145-.289.145-.579.362-.868.506A1.633,1.633,0,0,1,6,5.2c-.145-.072-.217-.145-.362-.145a1.729,1.729,0,0,0,1.013.362Zm1.23-1.881a.375.375,0,0,1,.145.289c.145-.145.072-.362-.072-.362,0-.014,0-.02-.007-.02s-.065.093-.065.093Zm-2.025,0c.072.072.072.145.145.217h.145A.072.072,0,0,1,6.22,3.68a1,1,0,0,0-.289-.217H5.859Z" transform="translate(0 0.012)"/>
</svg>
