<svg xmlns="http://www.w3.org/2000/svg" viewBox="0 0 14.979 18.482">
  <defs>
    <style>
      .cls-1 {
        fill: #fff;
        opacity: 0.5;
      }
    </style>
  </defs>
  <path id="mac" class="cls-1" d="M3.408,17.938a10.806,10.806,0,0,1-2.17-2.966A10.864,10.864,0,0,1,.008,9.548,5.457,5.457,0,0,1,1.166,6.22,4.331,4.331,0,0,1,4.854,4.484a7.284,7.284,0,0,1,1.664.506,3.816,3.816,0,0,0,.868.217.8.8,0,0,0,.579,0c.579-.145,1.157-.362,1.808-.579a4.49,4.49,0,0,1,4.34,1.013c.145.145.217.289.362.434,0,.072.072.145.072.217a4.086,4.086,0,0,0,.434,7.233c-.072.145-.072.289-.145.434a9.815,9.815,0,0,1-2.387,3.761,1.937,1.937,0,0,1-1.881.723,6.046,6.046,0,0,1-1.085-.289,3.906,3.906,0,0,0-3.472,0,6.018,6.018,0,0,1-1.085.289,1.251,1.251,0,0,1-.306.038,1.959,1.959,0,0,1-1.213-.545ZM7.53,4.267A4.025,4.025,0,0,1,11.219,0a4.455,4.455,0,0,1-.145,1.374A4.5,4.5,0,0,1,9.339,3.761a2.257,2.257,0,0,1-1.493.524,2.862,2.862,0,0,1-.316-.018Z" transform="translate(-0.001)"/>
</svg>
