<svg xmlns="http://www.w3.org/2000/svg" viewBox="0 0 16.492 16.491">
  <defs>
    <style>
      .cls-1 {
        fill: #fff;
        opacity: 0.5;
      }
    </style>
  </defs>
  <path id="web" class="cls-1" d="M8.205,16.491H8.173q-.154,0-.307-.009A8.246,8.246,0,0,1,8.245,0a8.336,8.336,0,0,1,8.245,8.246,8.241,8.241,0,0,1-8.245,8.246Zm.04-.579q.226,0,.449-.013a3.669,3.669,0,0,0,1.047-1.768c-.481.03-.981.046-1.5.046s-1.034-.015-1.526-.045A3.544,3.544,0,0,0,7.774,15.9Q8.008,15.913,8.245,15.913Zm1.116-.083q.358-.054.705-.14a6.053,6.053,0,0,0,2.422-1.918,17.546,17.546,0,0,1-2.178.318,5.786,5.786,0,0,1-.95,1.74Zm-2.4-.023a5.863,5.863,0,0,1-.933-1.726,17.471,17.471,0,0,1-2.08-.3,6.026,6.026,0,0,0,2.424,1.907Q6.665,15.755,6.964,15.806Zm5.3-1.051a7.824,7.824,0,0,0,1.685-1.418,7.261,7.261,0,0,1-.694.239,7.582,7.582,0,0,1-.991,1.179Zm-8.4-.217a7.692,7.692,0,0,1-.8-.991q-.289-.09-.537-.19a7.709,7.709,0,0,0,1.332,1.18Zm4.377-.579c.541,0,1.067-.016,1.568-.046a15.958,15.958,0,0,0,.589-2.9c-.676-.057-1.4-.088-2.157-.088s-1.491.033-2.166.094a15.935,15.935,0,0,0,.569,2.893c.512.033,1.047.05,1.6.05Zm2.143-.088a16.356,16.356,0,0,0,2.276-.338,8.486,8.486,0,0,0,1.013-1.9,11.263,11.263,0,0,0-2.649-.568,14.756,14.756,0,0,1-.639,2.8ZM5.952,13.86A14.739,14.739,0,0,1,5.323,11.1a10.978,10.978,0,0,0-2.538.579,8.238,8.238,0,0,0,.981,1.849,16.2,16.2,0,0,0,2.186.334Zm7.469-.537a3.025,3.025,0,0,0,.916-.454q.137-.179.263-.362a.421.421,0,0,0,.011-.066c0-.205-.161-.4-.454-.574a8.735,8.735,0,0,1-.734,1.455ZM2.893,13.271a8.721,8.721,0,0,1-.665-1.311c-.225.153-.346.315-.346.481a.4.4,0,0,0,.011.093q.119.176.247.344a2.672,2.672,0,0,0,.754.393ZM1.519,11.919a1.758,1.758,0,0,1,.534-.43,9.727,9.727,0,0,1-.439-1.858,4.8,4.8,0,0,1-.98-.485,7.629,7.629,0,0,0,.885,2.773Zm13.447-.009a7.58,7.58,0,0,0,.894-2.763,5.093,5.093,0,0,1-1.131.54,9.737,9.737,0,0,1-.411,1.742,1.985,1.985,0,0,1,.646.48Zm-12.34-.689A11.835,11.835,0,0,1,5.262,10.6c-.007-.066-.014-.132-.021-.2A17.523,17.523,0,0,1,2.3,9.859a9.482,9.482,0,0,0,.326,1.362Zm11.2-.009a9.783,9.783,0,0,0,.338-1.348,17.879,17.879,0,0,1-3.062.554q-.009.085-.018.169a12.374,12.374,0,0,1,2.742.624Zm-3.372-.7,0-.041-.257.018Zm-4.425,0,.245-.022-.249-.018Zm2.216-.245c.778,0,1.53-.031,2.239-.088.049-.621.072-1.27.072-1.937,0-.563-.017-1.115-.051-1.646-.712-.058-1.473-.09-2.26-.09s-1.551.028-2.265.082q-.05.8-.051,1.655c0,.67.025,1.322.072,1.945C6.709,10.243,7.463,10.271,8.245,10.271Zm2.965-2.025c0,.646-.027,1.274-.08,1.877a15.605,15.605,0,0,0,3.09-.6,10.312,10.312,0,0,0,.1-1.273q0-.49-.048-.966a15.307,15.307,0,0,0-3.1-.616C11.211,7.175,11.219,7.7,11.211,8.246Zm-6,1.876c-.052-.6-.08-1.23-.08-1.875,0-.542.02-1.071.056-1.583a14.754,14.754,0,0,0-2.974.579q-.048.493-.048,1a10.048,10.048,0,0,0,.085,1.306,14.946,14.946,0,0,0,2.96.57Zm9.612-1.876a10.342,10.342,0,0,1-.055,1.066c.632-.276.995-.591.995-.921s-.348-.634-.956-.9Q14.833,7.862,14.827,8.246ZM.723,8.39c0,.328.305.631.847.893a10.344,10.344,0,0,1-.051-1.037q0-.372.027-.736C1.019,7.769.723,8.067.723,8.39Zm15.14-1.013a7.6,7.6,0,0,0-.911-2.848,1.988,1.988,0,0,1-.619.46,9.506,9.506,0,0,1,.419,1.844,5.024,5.024,0,0,1,1.112.544ZM.63,7.347a4.8,4.8,0,0,1,.984-.488,9.58,9.58,0,0,1,.47-1.918,1.862,1.862,0,0,1-.553-.427,7.645,7.645,0,0,0-.9,2.832Zm13.561-.7a9.371,9.371,0,0,0-.357-1.441,12.162,12.162,0,0,1-2.724.621c.009.082.016.165.024.247a17.527,17.527,0,0,1,3.056.573ZM2.3,6.634a17.518,17.518,0,0,1,2.946-.548c.009-.092.02-.184.03-.274A12.035,12.035,0,0,1,2.64,5.2,9.514,9.514,0,0,0,2.3,6.634Zm8.169-.618-.01-.114q-.4.038-.816.061.42.02.825.052Zm-4.44,0q.407-.031.831-.051-.42-.025-.821-.063c0,.036-.008.074-.011.112Zm2.22-.23c.769,0,1.506-.032,2.189-.091A16.914,16.914,0,0,0,9.908,2.8c-.532-.033-1.089-.051-1.664-.051s-1.14.02-1.672.055A16.839,16.839,0,0,0,6.052,5.7C6.735,5.755,7.473,5.786,8.245,5.786Zm2.843-.158a10.431,10.431,0,0,0,2.676-.61,8.463,8.463,0,0,0-.89-1.8,15.7,15.7,0,0,0-2.348-.37A15.01,15.01,0,0,1,11.088,5.628ZM5.294,5.621a15.177,15.177,0,0,1,.589-2.76,15.163,15.163,0,0,0-2.335.394A8.348,8.348,0,0,0,2.7,5.028a10.2,10.2,0,0,0,2.6.593Zm8.958-.861a.719.719,0,0,0,.358-.493c0-.3-.352-.579-.959-.812a8.687,8.687,0,0,1,.6,1.3ZM1.88,4.267a.612.612,0,0,0,.283.461,8.861,8.861,0,0,1,.574-1.206C2.191,3.747,1.88,4,1.88,4.267Zm.683-1.2c.18-.072.378-.145.592-.207A7.686,7.686,0,0,1,4.05,1.808,7.608,7.608,0,0,0,2.563,3.072Zm11.335,0A7.722,7.722,0,0,0,12.4,1.8a7.485,7.485,0,0,1,.873,1.05c.226.067.435.138.625.213Zm-9.92-.415A17.308,17.308,0,0,1,6.066,2.34,5.629,5.629,0,0,1,7,.677q-.323.051-.636.129A5.956,5.956,0,0,0,3.978,2.653Zm8.479-.005A6.068,6.068,0,0,0,10.053.8q-.3-.072-.613-.122a5.649,5.649,0,0,1,.908,1.664,17.62,17.62,0,0,1,2.109.311ZM9.745,2.286A3.447,3.447,0,0,0,8.716.593Q8.482.579,8.245.579T7.771.593A3.418,3.418,0,0,0,6.736,2.288c.485-.03.99-.046,1.509-.046s1.018.017,1.5.048Z" transform="translate(0.001)"/>
</svg>
