<svg xmlns="http://www.w3.org/2000/svg" xmlns:xlink="http://www.w3.org/1999/xlink" viewBox="0 0 108 108">
  <defs>
    <style>
      .cls-1 {
        fill: none;
      }

      .cls-2 {
        opacity: 0.12;
        fill: url(#linear-gradient);
      }

      .cls-3 {
        fill: #fff;
      }
    </style>
    <linearGradient id="linear-gradient" x1="0.5" x2="0.5" y2="1" gradientUnits="objectBoundingBox">
      <stop offset="0" stop-color="#fff" stop-opacity="0"/>
      <stop offset="1" stop-color="#fff"/>
    </linearGradient>
  </defs>
  <g id="beg-collab" transform="translate(-986 -2795)">
    <rect id="Rectangle_4350" data-name="Rectangle 4350" class="cls-1" width="108" height="108" transform="translate(986 2795)"/>
    <path id="Path_15710" data-name="Path 15710" class="cls-2" d="M36,0A36,36,0,1,1,0,36,36,36,0,0,1,36,0Z" transform="translate(1022 2813)"/>
    <g id="Group_3121" data-name="Group 3121" transform="translate(-11534 -1776.098)">
      <g id="Path_15668" data-name="Path 15668" transform="translate(12523.045 4582.105)">
        <path id="Path_193" data-name="Path 193" class="cls-1" d="M34.13,86.537c-5.686-.151-9.837-2.742-12.755-7.6-2.164-3.623-4.6-7.094-6.893-10.642C10.407,62.084,6.407,55.769,2.23,49.606A14.256,14.256,0,0,1,.268,38.662a13.058,13.058,0,0,1,2.767-5.409C6.558,28.8,10.331,24.5,14,20.146c4.176-4.956,8.327-9.962,12.529-14.893A14.363,14.363,0,0,1,36.973.02c3.673-.252,6.767,1.308,9.988,2.516Q59.452,7.215,71.917,12.02a53.536,53.536,0,0,1,8.579,3.8,12.19,12.19,0,0,1,5.937,10.59,38.859,38.859,0,0,1-.478,6.616,4.688,4.688,0,0,1-5.359,3.8,8.113,8.113,0,0,1-5.912-3.572A9.057,9.057,0,0,0,67.313,29.1a7.877,7.877,0,0,0-6.39,3.2A20.475,20.475,0,0,0,56.6,41.605a17.833,17.833,0,0,0,1.761,11.9c2.994,6.214,13.132,7.874,17.535,1.132,1.761-2.667,4.579-3.4,6.893-1.962a4,4,0,0,1,1.862,3.748c-.1,2.918-.151,5.862-.5,8.78a13.227,13.227,0,0,1-9.937,11.673c-4.679,1.233-9.359,2.491-14.063,3.673-4.226,1.057-8.453,2.038-12.679,3.094-3.271.83-6.516,1.786-9.786,2.566A23.238,23.238,0,0,1,34.13,86.537Z"/>
        <path id="Path_194" data-name="Path 194" class="cls-3" d="M34.13,86.537a23.237,23.237,0,0,0,3.547-.327c3.271-.78,6.516-1.736,9.786-2.566,4.226-1.057,8.453-2.038,12.68-3.094,4.7-1.182,9.384-2.44,14.063-3.673A13.227,13.227,0,0,0,84.144,65.2c.352-2.918.4-5.862.5-8.78a4,4,0,0,0-1.862-3.749,4.635,4.635,0,0,0-2.454-.721,5.409,5.409,0,0,0-4.439,2.684A9.557,9.557,0,0,1,67.7,58.986a10.366,10.366,0,0,1-9.344-5.48,17.833,17.833,0,0,1-1.761-11.9A20.475,20.475,0,0,1,60.923,32.3a7.924,7.924,0,0,1,6.17-3.2l.22,0a9.057,9.057,0,0,1,7.371,4.151A8.113,8.113,0,0,0,80.6,36.825a5.624,5.624,0,0,0,.6.032,4.615,4.615,0,0,0,4.759-3.831,38.843,38.843,0,0,0,.478-6.616A12.19,12.19,0,0,0,80.5,15.819a53.535,53.535,0,0,0-8.579-3.8Q59.464,7.19,46.961,2.536c-2.986-1.12-5.865-2.543-9.2-2.543q-.391,0-.791.027a14.363,14.363,0,0,0-10.44,5.233C22.331,10.183,18.18,15.19,14,20.146,10.331,24.5,6.558,28.8,3.036,33.253A13.059,13.059,0,0,0,.268,38.662,14.256,14.256,0,0,0,2.23,49.605C6.407,55.769,10.407,62.084,14.482,68.3c2.289,3.547,4.73,7.019,6.893,10.642,2.918,4.855,7.069,7.447,12.755,7.6m-.08,3c-6.613-.176-11.742-3.221-15.247-9.051l0-.007c-1.374-2.3-2.907-4.605-4.39-6.835-.8-1.21-1.637-2.461-2.442-3.709-1.385-2.112-2.783-4.269-4.135-6.355C5.205,59.526,2.489,55.335-.253,51.288a16.027,16.027,0,0,1-2.584-6.561,19.947,19.947,0,0,1,.151-6.585A15.539,15.539,0,0,1,.667,31.411l.015-.019c2.591-3.276,5.343-6.5,8-9.622.995-1.166,2.023-2.372,3.025-3.559,1.55-1.839,3.125-3.72,4.649-5.539,2.576-3.076,5.24-6.256,7.885-9.36A17.4,17.4,0,0,1,36.762-2.973h.006c.329-.023.665-.034,1-.034A23.347,23.347,0,0,1,46.481-.869c.529.209,1.028.407,1.533.6C54.891,2.3,63.947,5.711,73,9.223q.608.236,1.221.469a47.114,47.114,0,0,1,7.835,3.565,14.971,14.971,0,0,1,5.43,5.587,16.254,16.254,0,0,1,1.945,7.483v.015a41.685,41.685,0,0,1-.51,7.128,7.322,7.322,0,0,1-2.75,4.716A8.111,8.111,0,0,1,81.2,39.857a8.7,8.7,0,0,1-.918-.049,11.092,11.092,0,0,1-8.022-4.794A6.059,6.059,0,0,0,67.243,32.1h-.013l-.138,0c-1.436,0-2.6.643-3.892,2.15a17.452,17.452,0,0,0-3.673,7.993A14.8,14.8,0,0,0,61.058,52.2,7.35,7.35,0,0,0,67.7,55.986,6.6,6.6,0,0,0,73.38,53l.008-.013a8.366,8.366,0,0,1,6.942-4.03,7.667,7.667,0,0,1,4.034,1.171l.031.019a6.983,6.983,0,0,1,3.249,6.378v.005q-.022.629-.041,1.259c-.081,2.532-.164,5.149-.482,7.777a17.154,17.154,0,0,1-3.568,8.73,16.184,16.184,0,0,1-8.578,5.483h-.006l-3.288.869c-3.534.936-7.188,1.9-10.808,2.813-2.129.532-4.284,1.052-6.367,1.554s-4.211,1.015-6.31,1.54c-1.35.343-2.729.716-4.063,1.078-1.874.507-3.811,1.032-5.746,1.494a14.932,14.932,0,0,1-2.989.344c-.361.016-.7.031-1.014.057Z"/>
      </g>
      <path id="Path_15669" data-name="Path 15669" class="cls-3" d="M23.423,1l-4.77,9.731L13.144,1H6.812L0,16.775H6.359l4.057-9.429,4.474,7.992.789,1.41h6.373L29.741,1ZM17.817,12.348l.9,1.028S17.831,12.376,17.817,12.348Z" transform="translate(12540.143 4615.8)"/>
    </g>
  </g>
</svg>
