<svg xmlns="http://www.w3.org/2000/svg" xmlns:xlink="http://www.w3.org/1999/xlink" viewBox="0 0 234 234">
  <defs>
    <style>
      .cls-1 {
        fill: none;
      }

      .cls-2 {
        fill: #fff;
      }

      .cls-3 {
        opacity: 0.12;
        fill: url(#linear-gradient);
      }
    </style>
    <linearGradient id="linear-gradient" x1="0.5" x2="0.5" y2="1" gradientUnits="objectBoundingBox">
      <stop offset="0" stop-color="#fff" stop-opacity="0"/>
      <stop offset="1" stop-color="#fff"/>
    </linearGradient>
  </defs>
  <g id="con-doc" transform="translate(2161.031 -1227)">
    <rect id="Rectangle_283" data-name="Rectangle 283" class="cls-1" width="233.969" height="234" transform="translate(-2161 1227)"/>
    <g id="temp_1_" transform="translate(-2161.031 1258)">
      <path id="Path_15856" data-name="Path 15856" class="cls-2" d="M-17094.5,628.745a2.366,2.366,0,0,1-1.7-.7,2.369,2.369,0,0,1-.693-1.7V488.4a2.369,2.369,0,0,1,.693-1.7,2.366,2.366,0,0,1,1.7-.7h98.109a2.376,2.376,0,0,1,1.7.7,2.372,2.372,0,0,1,.7,1.7l0,27.167h26.873a2.382,2.382,0,0,1,1.705.7,2.379,2.379,0,0,1,.7,1.7v9.888a2.379,2.379,0,0,1-.7,1.7,2.382,2.382,0,0,1-1.705.7,2.375,2.375,0,0,1-1.705-.7,2.38,2.38,0,0,1-.7-1.7v-7.488h-26.879a2.379,2.379,0,0,1-1.705-.7,2.381,2.381,0,0,1-.7-1.7l0-27.167h-93.3V626.345A2.441,2.441,0,0,1-17094.5,628.745Z" transform="translate(17127.52 -486)"/>
      <path id="Path_15857" data-name="Path 15857" class="cls-2" d="M-16988.1,662.728c-5.664,0-32.926-.192-59.324-.384-26.02-.192-50.494-.384-55.582-.384-11.615,0-18.238-3.552-22.848-12.191-4.8-9.023-2.3-19.2-2.207-19.583a2.443,2.443,0,0,1,2.3-1.824h118.936a2.276,2.276,0,0,1,1.732.768,3.031,3.031,0,0,1,.67,1.824,36.747,36.747,0,0,0,1.055,10.944c1.346,4.32,5.857,7.1,5.953,7.2a2.371,2.371,0,0,1,.77,3.264,2.362,2.362,0,0,1-1.473,1.065,2.364,2.364,0,0,1-1.795-.3c-.291-.192-6.049-3.744-7.965-9.792a34.273,34.273,0,0,1-1.346-10.175h-114.428c-.383,2.976-.674,9.12,2.107,14.4,3.748,7.008,8.74,9.6,18.535,9.6,5.088,0,29.563.192,55.574.384,26.4.192,53.668.384,59.332.384,9.5,0,17.662-11.424,17.662-20.831V584.3a2.365,2.365,0,0,1,.7-1.705,2.373,2.373,0,0,1,1.705-.7,2.371,2.371,0,0,1,1.705.695,2.372,2.372,0,0,1,.693,1.705l0,52.8C-16965.6,648.713-16975.6,662.728-16988.1,662.728Z" transform="translate(17128.795 -489.841)"/>
      <g id="Group_3544_1_" transform="translate(51.264 90.139)">
        <path id="Path_15858" data-name="Path 15858" class="cls-2" d="M-16205.6,415.2h-13.4a2.375,2.375,0,0,1-1.7-.7,2.372,2.372,0,0,1-.7-1.7,2.372,2.372,0,0,1,.7-1.7,2.375,2.375,0,0,1,1.7-.7h13.438a2.375,2.375,0,0,1,1.705.7,2.372,2.372,0,0,1,.7,1.7,2.375,2.375,0,0,1-.709,1.718,2.377,2.377,0,0,1-1.729.682Z" transform="translate(16221.4 -410.4)"/>
        <path id="Path_15859" data-name="Path 15859" class="cls-2" d="M-16172,415.2h-24a2.377,2.377,0,0,1-1.705-.7,2.373,2.373,0,0,1-.7-1.7,2.373,2.373,0,0,1,.7-1.7,2.377,2.377,0,0,1,1.705-.7h24a2.375,2.375,0,0,1,1.7.7,2.372,2.372,0,0,1,.7,1.7,2.372,2.372,0,0,1-.7,1.7A2.375,2.375,0,0,1-16172,415.2Z" transform="translate(16220.479 -410.4)"/>
      </g>
      <g id="Group_3545_1_" transform="translate(51.264 45.022)">
        <path id="Path_15860" data-name="Path 15860" class="cls-2" d="M-16198.8,368.2h-20.2a2.375,2.375,0,0,1-1.7-.7,2.372,2.372,0,0,1-.7-1.7,2.38,2.38,0,0,1,.7-1.7,2.376,2.376,0,0,1,1.7-.7h20.157a2.377,2.377,0,0,1,1.706.7,2.373,2.373,0,0,1,.7,1.7,2.375,2.375,0,0,1-.681,1.69,2.376,2.376,0,0,1-1.678.71Z" transform="translate(16221.4 -363.4)"/>
        <path id="Path_15861" data-name="Path 15861" class="cls-2" d="M-16135.1,368.2h-49.9a2.377,2.377,0,0,1-1.705-.7,2.373,2.373,0,0,1-.7-1.7,2.376,2.376,0,0,1,.7-1.7,2.378,2.378,0,0,1,1.705-.7h49.92a2.376,2.376,0,0,1,1.7.7,2.38,2.38,0,0,1,.7,1.7,2.377,2.377,0,0,1-.7,1.711A2.378,2.378,0,0,1-16135.1,368.2Z" transform="translate(16220.038 -363.4)"/>
      </g>
      <path id="Path_15862" data-name="Path 15862" class="cls-2" d="M-17008.7,561.2h-64.3a2.377,2.377,0,0,1-1.705-.7,2.38,2.38,0,0,1-.7-1.7,2.372,2.372,0,0,1,.7-1.7,2.375,2.375,0,0,1,1.7-.7h64.318a2.376,2.376,0,0,1,1.7.7,2.371,2.371,0,0,1,.7,1.7,2.37,2.37,0,0,1-.7,1.71A2.371,2.371,0,0,1-17008.7,561.2Z" transform="translate(17126.66 -488.819)"/>
      <path id="Path_15863" data-name="Path 15863" class="cls-2" d="M-17027.9,608.2h-45.1a2.377,2.377,0,0,1-1.705-.7,2.372,2.372,0,0,1-.7-1.7,2.38,2.38,0,0,1,.7-1.7,2.376,2.376,0,0,1,1.7-.7h45.119a2.371,2.371,0,0,1,1.705.695,2.374,2.374,0,0,1,.7,1.705,2.373,2.373,0,0,1-.7,1.711A2.373,2.373,0,0,1-17027.9,608.2Z" transform="translate(17126.66 -490.702)"/>
      <path id="Path_15864" data-name="Path 15864" class="cls-2" d="M-16939.5,547.721a2.466,2.466,0,0,1-1.729-.672l-11.521-11.519a2.308,2.308,0,0,1-.725-1.68,2.309,2.309,0,0,1,.725-1.68,2.318,2.318,0,0,1,1.68-.72,2.326,2.326,0,0,1,1.682.72l11.518,11.519a2.314,2.314,0,0,1,.723,1.68,2.309,2.309,0,0,1-.725,1.68,1.971,1.971,0,0,1-1.629.672Z" transform="translate(17121.781 -487.82)"/>
      <path id="Path_15865" data-name="Path 15865" class="cls-2" d="M-16952,572.321a2.469,2.469,0,0,1-1.73-.672,2.323,2.323,0,0,1-.717-1.68,2.323,2.323,0,0,1,.717-1.68l21.123-21.119a2.317,2.317,0,0,1,1.68-.72,2.319,2.319,0,0,1,1.68.72,2.323,2.323,0,0,1,.719,1.68,2.324,2.324,0,0,1-.719,1.68l-21.123,21.119a1.962,1.962,0,0,1-1.629.672Z" transform="translate(17121.814 -488.421)"/>
      <path id="Path_15866" data-name="Path 15866" class="cls-2" d="M-17011.3,606.3a2.4,2.4,0,0,1-1.73-.768,2.325,2.325,0,0,1-.477-2.592l8.443-21.407a1.524,1.524,0,0,1,.58-.768l57.594-57.6a2.508,2.508,0,0,1,3.365,0l12.57,12.575a2.323,2.323,0,0,1,.721,1.68,2.323,2.323,0,0,1-.721,1.68l-59.42,59.421a2.287,2.287,0,0,1-.867.576l-19.293,7.008a2.986,2.986,0,0,1-.766.195Zm10.459-22.463-6.33,16.031,13.824-4.992,57.3-57.309-9.215-9.216Z" transform="translate(17124.189 -487.463)"/>
      <path id="Path_15867" data-name="Path 15867" class="cls-2" d="M-16963.2,520a2.452,2.452,0,0,1-1.729-.672l-28.8-28.8a2.308,2.308,0,0,1-.725-1.68,2.309,2.309,0,0,1,.725-1.68,2.313,2.313,0,0,1,1.676-.72,2.311,2.311,0,0,1,1.676.72l28.8,28.8a2.323,2.323,0,0,1,.721,1.68,2.323,2.323,0,0,1-.721,1.68,1.976,1.976,0,0,1-1.623.672Z" transform="translate(17123.416 -486.018)"/>
    </g>
    <circle id="Ellipse_2053" data-name="Ellipse 2053" class="cls-3" cx="88.335" cy="88.335" r="88.335" transform="translate(-2104.031 1256)"/>
  </g>
</svg>
