<svg xmlns="http://www.w3.org/2000/svg" xmlns:xlink="http://www.w3.org/1999/xlink" viewBox="0 0 130 130">
  <defs>
    <style>
      .cls-1 {
        fill: none;
      }

      .cls-2 {
        opacity: 0.12;
        fill: url(#linear-gradient);
      }

      .cls-3 {
        fill: #fff;
      }
    </style>
    <linearGradient id="linear-gradient" x1="0.5" x2="0.5" y2="1" gradientUnits="objectBoundingBox">
      <stop offset="0" stop-color="#fff" stop-opacity="0"/>
      <stop offset="1" stop-color="#fff"/>
    </linearGradient>
  </defs>
  <g id="gov-content-manifesto" transform="translate(-1835 -4687)">
    <rect id="Rectangle_283" data-name="Rectangle 283" class="cls-1" width="130" height="130" transform="translate(1835 4687)"/>
    <circle id="Ellipse_118" data-name="Ellipse 118" class="cls-2" cx="46.5" cy="46.5" r="46.5" transform="translate(1872 4706)"/>
    <g id="temp_1_" transform="translate(18963.766 4218.245)">
      <path id="Path_15856" data-name="Path 15856" class="cls-3" d="M-17095.6,565.3a1.316,1.316,0,0,1-.945-.386,1.315,1.315,0,0,1-.387-.947V487.333a1.314,1.314,0,0,1,.387-.947,1.316,1.316,0,0,1,.945-.386h54.5a1.316,1.316,0,0,1,.947.386,1.317,1.317,0,0,1,.389.947l0,15.093h14.93a1.316,1.316,0,0,1,.947.386,1.317,1.317,0,0,1,.389.947v5.493a1.317,1.317,0,0,1-.389.947,1.315,1.315,0,0,1-.947.386,1.322,1.322,0,0,1-.947-.387,1.32,1.32,0,0,1-.385-.946l0-4.16h-14.934a1.319,1.319,0,0,1-.947-.387,1.314,1.314,0,0,1-.387-.946V488.667h-51.836v75.3a1.358,1.358,0,0,1-1.33,1.333Z" transform="translate(-14.871)"/>
      <path id="Path_15857" data-name="Path 15857" class="cls-3" d="M-17050.6,626.8c-3.148,0-18.293-.107-32.959-.213-14.455-.107-28.053-.213-30.879-.213-6.453,0-10.133-1.973-12.693-6.773-2.668-5.013-1.279-10.666-1.227-10.88a1.36,1.36,0,0,1,1.279-1.013H-17061a1.256,1.256,0,0,1,.961.427,1.684,1.684,0,0,1,.373,1.013,20.428,20.428,0,0,0,.588,6.08,8.58,8.58,0,0,0,3.3,4,1.317,1.317,0,0,1,.59.818,1.318,1.318,0,0,1-.162,1,1.306,1.306,0,0,1-.816.591,1.312,1.312,0,0,1-1-.165,11.114,11.114,0,0,1-4.428-5.439,19.144,19.144,0,0,1-.75-5.653h-63.568a14.06,14.06,0,0,0,1.174,8c2.08,3.894,4.854,5.334,10.3,5.334,2.826,0,16.424.107,30.875.213,14.668.107,29.814.213,32.963.213,5.277,0,9.811-6.346,9.811-11.573V583.233a1.312,1.312,0,0,1,.385-.946,1.319,1.319,0,0,1,.947-.387,1.315,1.315,0,0,1,.947.386,1.315,1.315,0,0,1,.387.947v29.332C-17038.1,619.018-17043.7,626.8-17050.6,626.8Z" transform="translate(0 -44.756)"/>
      <g id="Group_3544_1_" transform="translate(-17100.303 536.077)">
        <path id="Path_15858" data-name="Path 15858" class="cls-3" d="M-16212.6,413.066h-7.466a1.321,1.321,0,0,1-.947-.387,1.322,1.322,0,0,1-.387-.946,1.322,1.322,0,0,1,.387-.946,1.32,1.32,0,0,1,.946-.387h7.467a1.321,1.321,0,0,1,.946.387,1.322,1.322,0,0,1,.387.946,1.321,1.321,0,0,1-.387.946,1.32,1.32,0,0,1-.946.387Z" transform="translate(16221.4 -410.4)"/>
        <path id="Path_15859" data-name="Path 15859" class="cls-3" d="M-16183.7,413.066h-13.333a1.321,1.321,0,0,1-.947-.387,1.322,1.322,0,0,1-.387-.946,1.318,1.318,0,0,1,.387-.947,1.319,1.319,0,0,1,.947-.386h13.333a1.321,1.321,0,0,1,.946.387,1.322,1.322,0,0,1,.387.946,1.321,1.321,0,0,1-.387.946,1.32,1.32,0,0,1-.946.387Z" transform="translate(16210.666 -410.4)"/>
      </g>
      <g id="Group_3545_1_" transform="translate(-17100.303 511.012)">
        <path id="Path_15860" data-name="Path 15860" class="cls-3" d="M-16208.9,366.067h-11.2a1.321,1.321,0,0,1-.947-.387,1.321,1.321,0,0,1-.387-.946,1.309,1.309,0,0,1,.385-.947,1.319,1.319,0,0,1,.948-.386h11.2a1.319,1.319,0,0,1,.946.386,1.323,1.323,0,0,1,.388.947,1.323,1.323,0,0,1-.388.947,1.319,1.319,0,0,1-.947.386Z" transform="translate(16221.4 -363.4)"/>
        <path id="Path_15861" data-name="Path 15861" class="cls-3" d="M-16158.3,366.067h-27.733a1.321,1.321,0,0,1-.947-.387,1.321,1.321,0,0,1-.387-.946,1.309,1.309,0,0,1,.385-.947,1.319,1.319,0,0,1,.948-.386h27.734a1.321,1.321,0,0,1,.946.387,1.321,1.321,0,0,1,.387.946,1.321,1.321,0,0,1-.387.946,1.32,1.32,0,0,1-.946.387Z" transform="translate(16205.533 -363.4)"/>
      </g>
      <path id="Path_15862" data-name="Path 15862" class="cls-3" d="M-17038.3,559.067h-35.732a1.319,1.319,0,0,1-.947-.387,1.321,1.321,0,0,1-.387-.946,1.307,1.307,0,0,1,.387-.947,1.315,1.315,0,0,1,.947-.386h35.732a1.324,1.324,0,0,1,.947.386,1.322,1.322,0,0,1,.387.947,1.322,1.322,0,0,1-.387.947,1.324,1.324,0,0,1-.947.386Z" transform="translate(-24.905 -32.855)"/>
      <path id="Path_15863" data-name="Path 15863" class="cls-3" d="M-17049,606.067h-25.066a1.319,1.319,0,0,1-.947-.387,1.322,1.322,0,0,1-.387-.946,1.307,1.307,0,0,1,.387-.947,1.315,1.315,0,0,1,.947-.386H-17049a1.316,1.316,0,0,1,.945.386,1.314,1.314,0,0,1,.387.947,1.315,1.315,0,0,1-.387.947A1.316,1.316,0,0,1-17049,606.067Z" transform="translate(-24.905 -54.79)"/>
      <path id="Path_15864" data-name="Path 15864" class="cls-3" d="M-16945.7,540.49a1.376,1.376,0,0,1-.963-.373l-6.4-6.4a1.281,1.281,0,0,1-.4-.934,1.28,1.28,0,0,1,.4-.933,1.285,1.285,0,0,1,.934-.4,1.285,1.285,0,0,1,.934.4l6.4,6.4a1.287,1.287,0,0,1,.4.934,1.28,1.28,0,0,1-.4.933A1.092,1.092,0,0,1-16945.7,540.49Z" transform="translate(-81.816 -21.211)"/>
      <path id="Path_15865" data-name="Path 15865" class="cls-3" d="M-16953.1,560.823a1.371,1.371,0,0,1-.961-.373,1.289,1.289,0,0,1-.4-.933,1.289,1.289,0,0,1,.4-.933l11.734-11.733a1.283,1.283,0,0,1,.932-.4,1.286,1.286,0,0,1,.934.4,1.287,1.287,0,0,1,.4.933,1.288,1.288,0,0,1-.4.934l-11.734,11.733A1.092,1.092,0,0,1-16953.1,560.823Z" transform="translate(-81.353 -28.212)"/>
      <path id="Path_15866" data-name="Path 15866" class="cls-3" d="M-17012.4,569.069a1.333,1.333,0,0,1-.961-.427,1.291,1.291,0,0,1-.266-1.44l4.691-11.893a.859.859,0,0,1,.322-.427l32-32a1.393,1.393,0,0,1,1.869,0l6.984,6.986a1.288,1.288,0,0,1,.4.933,1.288,1.288,0,0,1-.4.934l-33.012,33.012a1.261,1.261,0,0,1-.48.32l-10.719,3.893a1.676,1.676,0,0,1-.43.109Zm5.811-12.479-3.518,8.906,7.68-2.773,31.838-31.838-5.119-5.12Z" transform="translate(-53.699 -17.046)"/>
      <path id="Path_15867" data-name="Path 15867" class="cls-3" d="M-16977.1,505.089a1.371,1.371,0,0,1-.963-.373l-16-16a1.281,1.281,0,0,1-.4-.934,1.28,1.28,0,0,1,.4-.933,1.286,1.286,0,0,1,.932-.4,1.286,1.286,0,0,1,.932.4l16,16a1.288,1.288,0,0,1,.4.934,1.288,1.288,0,0,1-.4.934,1.094,1.094,0,0,1-.9.373Z" transform="translate(-62.682 -0.21)"/>
    </g>
  </g>
</svg>
