<svg id="hom-low-energy" xmlns="http://www.w3.org/2000/svg" xmlns:xlink="http://www.w3.org/1999/xlink" viewBox="0 0 100 100">
  <defs>
    <style>
      .cls-1, .cls-3, .cls-4 {
        fill: none;
      }

      .cls-2 {
        opacity: 0.12;
        fill: url(#linear-gradient);
      }

      .cls-3 {
        stroke: #009bff;
        stroke-linecap: round;
      }

      .cls-3, .cls-4 {
        stroke-linejoin: round;
        stroke-miterlimit: 10;
        stroke-width: 2.5px;
      }

      .cls-4 {
        stroke: #7d5ab5;
      }
    </style>
    <linearGradient id="linear-gradient" x1="0.5" x2="0.5" y2="1" gradientUnits="objectBoundingBox">
      <stop offset="0" stop-color="#004aff" stop-opacity="0"/>
      <stop offset="1" stop-color="#004aff"/>
    </linearGradient>
  </defs>
  <path id="Path_96" data-name="Path 96" class="cls-1" d="M0,0H100V100H0Z"/>
  <circle id="Ellipse_6" data-name="Ellipse 6" class="cls-2" cx="35.769" cy="35.769" r="35.769" transform="translate(28.462 14.615)"/>
  <g id="Group_10" data-name="Group 10">
    <path id="Path_97" data-name="Path 97" class="cls-3" d="M1.3,1.7S16.54,33.062,26.239,15.176C35.811-2.709,1.3,1.7,1.3,1.7Z" transform="translate(0.239 3.397)"/>
    <path id="Path_98" data-name="Path 98" class="cls-3" d="M56.3,4.63S21.533,1.985,32.113,19.366C42.819,36.748,56.3,4.63,56.3,4.63Z" transform="translate(7.716 4.245)"/>
    <path id="Path_99" data-name="Path 99" class="cls-3" d="M8.7,5.4s24.183,7.809,24.183,34.134" transform="translate(2.16 4.482)"/>
    <path id="Path_100" data-name="Path 100" class="cls-3" d="M48.186,9S29.293,18.7,26.9,28.649" transform="translate(6.883 5.416)"/>
    <path id="Path_101" data-name="Path 101" class="cls-4" d="M24.6,27.371A30.532,30.532,0,0,0,11,39.589c.63.756,1.134,1.637,1.763,2.393,1.511,2.141,2.393,2.771,5.038,2.9,1.511,0,4.282-1.385,5.542-.378,1.385,1.008.126,4.156,1.889,5.416,1.889,1.26,3.779-.63,5.668-.882,5.794-.63,2.771,6.927,7.935,7.683,3.779.5,9.195-3.527,7.683-7.305-1.008-2.393-6.55-3.527-4.786-7.053,1.008-2.141,3.527-1.134,5.416-1.134,5.542-.252,6.3-4.912,5.794-9.321a10.2,10.2,0,0,1,0-2.771A29.034,29.034,0,0,0,37.324,24.6" transform="translate(2.757 9.465)"/>
    <path id="Path_102" data-name="Path 102" class="cls-4" d="M68.157,49.99A30.558,30.558,0,0,0,54.05,28.2a10.208,10.208,0,0,0,0,2.771c.5,4.408-.252,9.069-5.794,9.321-1.889.126-4.408-.882-5.416,1.134-1.763,3.4,3.779,4.66,4.786,7.053,1.511,3.779-3.9,7.809-7.683,7.305-5.164-.756-2.141-8.313-7.935-7.683-1.889.252-3.779,2.141-5.668.882-1.763-1.26-.63-4.408-1.889-5.416s-4.031.378-5.542.378c-2.645-.126-3.527-.756-5.038-2.9a29.057,29.057,0,0,0-1.763-2.393,29.529,29.529,0,0,0-4.156,19.4A30.473,30.473,0,0,0,22.309,79.967c1.511-.5,3.023-.882,4.66-1.385,7.053-2.015.756-3.023,1.637-8.061.252-1.511,2.771-5.29,4.156-6.046,2.771-1.385,6.046,1.511,8.565,1.763,7.053.63,6.927-6.676,11.966-8.565s4.156,3.149,3.149,6.3C55.31,68.128,51.4,71.4,55.31,75.433a9.43,9.43,0,0,0,2.267,1.637,30.029,30.029,0,0,0,10.58-27.08Z" transform="translate(1.901 10.399)"/>
    <path id="Path_103" data-name="Path 103" class="cls-4" d="M52.4,69.545c-3.9-3.9-.126-7.305,1.134-11.462.882-3.149,1.763-8.187-3.149-6.3-5.038,1.889-5.038,9.195-11.966,8.565C35.9,60.1,32.625,57.2,29.854,58.587c-1.511.756-3.9,4.534-4.156,6.046-.756,5.038,5.416,6.046-1.637,8.061-1.637.5-3.149.882-4.66,1.385a30.353,30.353,0,0,0,35.393-2.771A19.69,19.69,0,0,1,52.4,69.545Z" transform="translate(4.937 16.414)"/>
  </g>
</svg>
