<svg id="hom-simplify" xmlns="http://www.w3.org/2000/svg" xmlns:xlink="http://www.w3.org/1999/xlink" viewBox="0 0 70 70">
  <defs>
    <style>
      .cls-1, .cls-4 {
        fill: none;
      }

      .cls-2 {
        opacity: 0.12;
        fill: url(#linear-gradient);
      }

      .cls-3 {
        fill: #7b47b4;
        stroke: #7b47b4;
      }

      .cls-4 {
        stroke: #009bff;
        stroke-linecap: round;
        stroke-width: 2px;
      }
    </style>
    <linearGradient id="linear-gradient" x1="0.5" x2="0.5" y2="1" gradientUnits="objectBoundingBox">
      <stop offset="0" stop-color="#004aff" stop-opacity="0"/>
      <stop offset="1" stop-color="#004aff"/>
    </linearGradient>
  </defs>
  <path id="Path_169" data-name="Path 169" class="cls-1" d="M0,0H70V70H0Z"/>
  <path id="Path_170" data-name="Path 170" class="cls-2" d="M23.333,0A23.333,23.333,0,1,1,0,23.333,23.333,23.333,0,0,1,23.333,0Z" transform="translate(23.333 11.667)"/>
  <path id="Path_171" data-name="Path 171" class="cls-3" d="M30.525,51.211a2.658,2.658,0,0,1-1.273-.481c-3.106-2.1-6.242-4.27-9.27-6.366l-1.615-1.118a2.643,2.643,0,0,1-1.32-2.407c.047-1.413.047-2.857.062-4.255s.031-2.857.062-4.27a6.97,6.97,0,0,0-1.879-4.984c-1.91-2.174-3.835-4.41-5.7-6.584C8.785,19.8,7.977,18.867,7.17,17.92c-.528-.606-1.056-1.227-1.584-1.832l-.031-.031C4.484,14.814,3.382,13.54,2.31,12.283c-.093-.124-.2-.233-.311-.357A10.734,10.734,0,0,1,.727,10.264,4.886,4.886,0,0,1,.105,8.307,44.53,44.53,0,0,1,.028,3.54,3.542,3.542,0,0,1,3.6.016C6.332.016,9.329,0,13.025,0H36.813c3.665,0,6.63,0,9.363.016a3.6,3.6,0,0,1,2.578,1.071,3.738,3.738,0,0,1,1.025,2.7c0,.28-.016.543-.016.823-.031,1.1-.062,2.252-.031,3.385a4.846,4.846,0,0,1-1.506,3.354c-.652.714-1.273,1.475-1.863,2.2-.419.5-.839,1.009-1.258,1.506-.217.264-.481.512-.714.761-.264.264-.528.528-.776.823-2.267,2.655-4.891,5.73-7.453,8.773l-.326.388a27.86,27.86,0,0,0-2.453,3.214,5.387,5.387,0,0,0-.7,2.717c-.016,5.264.016,10.9.093,17.22A2.211,2.211,0,0,1,30.633,51.2ZM4.764,10.124a2.434,2.434,0,0,0-.45.031.9.9,0,0,0-.776.575.884.884,0,0,0,.217.9c.745.9,1.491,1.77,2.143,2.516,1.165,1.351,2.329,2.7,3.509,4.037l.823.947c.683.792,1.366,1.568,2.05,2.36,1.522,1.755,3.09,3.556,4.627,5.342a5.729,5.729,0,0,1,1.584,3.6c.016.5.031.994.047,1.475.062,2.236.14,4.534.031,6.786a3.991,3.991,0,0,0,2.127,4.13c1.77,1.071,3.494,2.3,5.155,3.494.745.528,1.522,1.087,2.3,1.63.466.326.947.637,1.475.994.264.171.528.357.823.543l.73.481V47.484c0-1.18-.016-2.3.031-3.4a1.184,1.184,0,0,0-1.351-1.413h-.543a2.018,2.018,0,0,1-.87-.093,4.394,4.394,0,0,1-.062-1.366v-.047a1.05,1.05,0,0,1,.016-.186h.186a4.369,4.369,0,0,0,.466.016H30.17a1.01,1.01,0,0,0,.776-.279,1.073,1.073,0,0,0,.248-.823,11.647,11.647,0,0,1,.016-1.646,1.147,1.147,0,0,0-.28-.932,1.242,1.242,0,0,0-.963-.357H26.86c-.016-.124-.016-.357-.016-.528,0-.248,0-.528-.016-.885v-.124H29.1c.388,0,.7,0,.994.016h.062a1.01,1.01,0,0,0,.776-.28,1.146,1.146,0,0,0,.264-.839A12.484,12.484,0,0,1,31.223,33c0-.14.016-.28.016-.435a1.291,1.291,0,0,0-.311-.963,1.264,1.264,0,0,0-.916-.357H28.459a4.094,4.094,0,0,1-1.506-.124,3.163,3.163,0,0,1-.078-1.273c.124,0,.248-.016.357-.016h1.724c.59,0,1.04-.016,1.475-.031a1.509,1.509,0,0,0,1.118-.652,5.85,5.85,0,0,0,.5-.916,5.917,5.917,0,0,1,.637-1.071c2.578-3.075,5.217-6.149,7.779-9.115l1.4-1.63c.668-.776,1.335-1.553,2.019-2.329l.016-.016c.668-.776,1.351-1.553,2-2.329.124-.14.512-.652.264-1.056a1.416,1.416,0,0,0-.792-.528,1.032,1.032,0,0,0-.326-.047H5.028c.015.028-.233.012-.264.012Zm9.876-8.4H3.832a1.982,1.982,0,0,0-2.158,2.1c-.016.9-.016,1.755,0,2.5A2.178,2.178,0,0,0,3.956,8.54h41.9a2.173,2.173,0,0,0,2.267-2.252V4.115C48.1,2.407,47.4,1.708,45.726,1.708h-9.1Z" transform="translate(1.004 8.996)"/>
  <path id="Path_172" data-name="Path 172" class="cls-4" d="M12.5,21.5l9,10"/>
</svg>
