<svg xmlns="http://www.w3.org/2000/svg" xmlns:xlink="http://www.w3.org/1999/xlink" viewBox="0 0 70.101 70">
  <defs>
    <style>
      .cls-1, .cls-3 {
        fill: none;
      }

      .cls-2 {
        opacity: 0.12;
        fill: url(#linear-gradient);
      }

      .cls-3 {
        stroke: #7d5ab5;
        stroke-linecap: round;
        stroke-linejoin: round;
        stroke-miterlimit: 10;
        stroke-width: 1.5px;
      }

      .cls-4 {
        fill: #7d5ab5;
      }

      .cls-5 {
        fill: #009bff;
      }
    </style>
    <linearGradient id="linear-gradient" x1="0.5" x2="0.5" y2="1" gradientUnits="objectBoundingBox">
      <stop offset="0" stop-color="#004aff" stop-opacity="0"/>
      <stop offset="1" stop-color="#004aff"/>
    </linearGradient>
  </defs>
  <g id="hom-vote" transform="translate(-0.001)">
    <path id="Path_173" data-name="Path 173" class="cls-1" d="M.1,0h70V70H.1Z"/>
    <path id="Path_174" data-name="Path 174" class="cls-2" d="M23.333,0A23.333,23.333,0,1,1,0,23.333,23.333,23.333,0,0,1,23.333,0Z" transform="translate(23.435 11.667)"/>
    <g id="Group_18" data-name="Group 18">
      <path id="Path_175" data-name="Path 175" class="cls-3" d="M1934.97,2423.5a2.746,2.746,0,0,1,2.728-2.728h8.286v-9.882a1.274,1.274,0,0,0-1.287-1.287h-28.616a1.274,1.274,0,0,0-1.287,1.287v18.734a1.274,1.274,0,0,0,1.287,1.287H1944.7a1.274,1.274,0,0,0,1.287-1.287v-3.5H1937.7a2.627,2.627,0,0,1-2.725-2.624Z" transform="translate(-1908.646 -2390.482)"/>
      <path id="Path_176" data-name="Path 176" class="cls-3" d="M1980.73,2408.47l-10.757-3.4c-2.059-6.279-9.264-6.176-9.264-6.176h-12.3c-4.889,0-5.713,5.507-5.713,5.507h15.543a1.274,1.274,0,0,1,1.287,1.287v9.882h-8.286a2.728,2.728,0,1,0,0,5.456h11.272c2.573,0,3.139-1.9,3.654-3.345l10.4,3.345Z" transform="translate(-1922.187 -2385.289)"/>
      <path id="Path_177" data-name="Path 177" class="cls-3" d="M1907.03,2441.8H1904.3v20.065h42.975" transform="translate(-1903.55 -2406.109)"/>
      <path id="Path_178" data-name="Path 178" class="cls-3" d="M3.735,40.477H47.276"/>
    </g>
    <path id="Path_179" data-name="Path 179" class="cls-4" d="M83.579,3.8A3.572,3.572,0,0,1,84.827.762a3.531,3.531,0,0,1,5.482,1.721,4.2,4.2,0,0,1-.481,3.6,3.238,3.238,0,0,1-3.189,1.305A3.25,3.25,0,0,1,83.579,3.8Zm3.443,2.46a1.814,1.814,0,0,0,1.852-1.411,5.648,5.648,0,0,0,.082-1.925,1.935,1.935,0,0,0-3.809-.2A3.485,3.485,0,0,0,85.227,5a1.817,1.817,0,0,0,1.795,1.26Z" transform="translate(-70.784 44.705)"/>
    <path id="Path_180" data-name="Path 180" class="cls-4" d="M256.242,3.263v1.77h1.68c.473,0,.954-.008,1.428.008a.441.441,0,0,1,.473.457c.016.294-.09.514-.408.547s-.62.041-.93.049c-.734.008-1.468,0-2.227,0V8.108c.13.008.277.016.424.016.979,0,1.958,0,2.937.008.294,0,.547.09.6.416a.5.5,0,0,1-.514.661c-1.411.016-2.831.008-4.242,0a.6.6,0,0,1-.636-.653c-.008-1.9-.008-3.809,0-5.71a.614.614,0,0,1,.685-.653c1.346-.016,2.692-.008,4.038,0a.513.513,0,0,1,.579.538.521.521,0,0,1-.6.522c-.938.008-1.876,0-2.814,0-.155.01-.3.01-.473.01Z" transform="translate(-228.062 42.743)"/>
    <path id="Path_181" data-name="Path 181" class="cls-4" d="M3.127,6.154q.82-2.435,1.648-4.87c.033-.09.057-.179.1-.269a.628.628,0,0,1,.783-.4.624.624,0,0,1,.457.824c-.261.775-.547,1.55-.832,2.325C4.872,4.881,4.464,6,4.04,7.108c-.261.685-.865.987-1.4.669a1.666,1.666,0,0,1-.6-.767C1.616,5.966,1.249,4.91.865,3.853.582,3.095.3,2.328.027,1.561A.691.691,0,0,1,.614.582c.416-.024.612.237.734.579Q1.887,2.739,2.425,4.31c.2.612.416,1.224.62,1.835a.251.251,0,0,0,.082.009Z" transform="translate(5.998 44.216)"/>
    <path id="Path_182" data-name="Path 182" class="cls-4" d="M172.984,3.35h-1.558c-.489,0-.718-.188-.726-.571s.22-.579.718-.579h4.527c.489,0,.734.2.734.571s-.253.579-.726.579c-.5.008-1,0-1.558,0V8.342a2.751,2.751,0,0,1-.008.367.727.727,0,0,1-.742.669.671.671,0,0,1-.644-.75c-.008-1.574-.008-3.157-.008-4.731-.009-.155-.009-.318-.009-.547Z" transform="translate(-150.8 42.729)"/>
    <path id="Path_183" data-name="Path 183" class="cls-5" d="M0,45.384v-3.8a.67.67,0,0,1,.732-.725H5.863a.622.622,0,0,1,.586.523.6.6,0,0,1-.4.713,1.227,1.227,0,0,1-.371.06q-2.062.009-4.118.006c-.234,0-.253.016-.253.253V48.37c0,.25.006.253.26.253H7.521c.244,0,.244,0,.247-.244V44.8a.7.7,0,0,1,.209-.526.616.616,0,0,1,.706-.114.609.609,0,0,1,.383.558c.016.247.006.5.006.744v3.707A.779.779,0,0,1,8.9,49.7a.711.711,0,0,1-.567.231H3.343c-.846,0-1.689-.006-2.534,0a.79.79,0,0,1-.763-.4A.536.536,0,0,1,0,49.265q0-1.944,0-3.881Z" transform="translate(11.109 -14.918)"/>
    <path id="Path_184" data-name="Path 184" class="cls-5" d="M83.846,5.91c.222-.269.428-.52.634-.773q.713-.884,1.419-1.774Q86.721,2.332,87.54,1.3c.276-.345.551-.691.84-1.026a.637.637,0,0,1,1.058.079.761.761,0,0,1-.117.811c-.741.922-1.486,1.844-2.224,2.769-.808,1.007-1.609,2.015-2.417,3.019a6.863,6.863,0,0,1-.63.722.626.626,0,0,1-.865-.152c-.177-.31-.336-.63-.5-.947q-.342-.675-.675-1.353c-.082-.171-.165-.342-.231-.52a.658.658,0,0,1,.317-.71.683.683,0,0,1,.957.4c.228.485.482.957.725,1.432a.84.84,0,0,0,.068.085Z" transform="translate(-68.058 24.616)"/>
  </g>
</svg>
