<svg xmlns="http://www.w3.org/2000/svg" xmlns:xlink="http://www.w3.org/1999/xlink" viewBox="0 0 70.006 70">
  <defs>
    <style>
      .cls-1 {
        fill: none;
      }

      .cls-2 {
        opacity: 0.12;
        fill: url(#linear-gradient);
      }

      .cls-3 {
        fill: #7d5ab5;
      }

      .cls-4 {
        fill: #009bff;
      }
    </style>
    <linearGradient id="linear-gradient" x1="0.5" x2="0.5" y2="1" gradientUnits="objectBoundingBox">
      <stop offset="0" stop-color="#004aff" stop-opacity="0"/>
      <stop offset="1" stop-color="#004aff"/>
    </linearGradient>
  </defs>
  <g id="hom-idea" transform="translate(0.006)">
    <path id="Path_66" data-name="Path 66" class="cls-1" d="M0,0H70V70H0Z"/>
    <path id="Path_67" data-name="Path 67" class="cls-2" d="M23.333,0A23.333,23.333,0,1,1,0,23.333,23.333,23.333,0,0,1,23.333,0Z" transform="translate(23.333 11.667)"/>
    <path id="Path_68" data-name="Path 68" class="cls-3" d="M82.509,62.742c-8.23.328-14.224,3.9-18.041,10.914A18.549,18.549,0,0,0,62.38,84.65a19.694,19.694,0,0,0,6.411,12.733c.626.586,1.322,1.1,2,1.63a7.35,7.35,0,0,1,2.982,5.944A1.1,1.1,0,0,1,72.7,106.19,1.082,1.082,0,0,1,71.585,105c0-2.157-1.173-3.569-2.813-4.8A21.475,21.475,0,0,1,60.82,88.3a20.517,20.517,0,0,1-.606-8.111A21.935,21.935,0,0,1,68.3,65.537,21.229,21.229,0,0,1,78.97,60.843a21.932,21.932,0,0,1,13.506,41.242,1.1,1.1,0,1,1-.994-1.948,21.286,21.286,0,0,0,6.242-4.91,18.458,18.458,0,0,0,4.115-8.409,20.1,20.1,0,0,0,.278-6.809,19.312,19.312,0,0,0-2.952-8.032,20.045,20.045,0,0,0-5.457-5.636,18.789,18.789,0,0,0-7.624-3.181c-1.249-.21-2.531-.3-3.575-.418Z" transform="translate(-54.079 -51.882)"/>
    <path id="Path_69" data-name="Path 69" class="cls-4" d="M169.31,164.832v-6.66a1.043,1.043,0,0,1,1.143-1.193c1.491-.03,2.982-.01,4.473,0a.96.96,0,0,1,.567.129c.368.318.567.089.825-.149a6.871,6.871,0,0,0,2.346-3.986,7.778,7.778,0,0,0,.1-1.73c-.149-1.809,1.044-3.141,3.32-2.445a3.313,3.313,0,0,1,2.366,3.111,34.342,34.342,0,0,1-.239,3.906c-.08.785-.08.855.716.855,1.312,0,2.614-.03,3.926-.01a3.078,3.078,0,0,1,2.952,4.354.918.918,0,0,0,.02.835,3.108,3.108,0,0,1-.239,2.9,1.174,1.174,0,0,0-.139.686,3.33,3.33,0,0,1-.9,2.962,1.879,1.879,0,0,0-.427.8,2.875,2.875,0,0,1-2.624,2.147c-.716.04-1.421.03-2.137.03-2.207,0-4.4,0-6.61-.01a1.059,1.059,0,0,1-1.1-1.481,1.1,1.1,0,0,1,1.123-.666c1.074,0,2.157.01,3.231.01,1.69,0,3.38,0,5.07-.01.736-.01.944-.209.964-.944a1.286,1.286,0,0,1,.547-1.054c.885-.706.944-.914.557-1.938a1.067,1.067,0,0,1,.338-1.412c.567-.517.6-.9.09-1.481a1.142,1.142,0,0,1,0-1.789,1.087,1.087,0,0,0,.258-1.233,1.008,1.008,0,0,0-1.044-.527c-1.918,0-3.847.01-5.765,0-1.014-.01-1.4-.5-1.213-1.491a23.461,23.461,0,0,0,.487-5.278,1.243,1.243,0,0,0-.825-1.183c-.378-.159-.477-.05-.517.348a21.245,21.245,0,0,1-.4,3.081,8.057,8.057,0,0,1-2.356,3.847c-.557.547-1.093,1.1-1.67,1.63a1.2,1.2,0,0,0-.408.954c.01,3.549,0,7.087,0,10.636,0,1.044-.368,1.412-1.392,1.412-1.322-.01-2.654,0-3.976,0-1.153,0-1.441-.288-1.441-1.421,0-2.208,0-4.374,0-6.542Zm4.652.1c0-1.769-.01-3.539,0-5.308,0-.4-.139-.527-.517-.507a13.954,13.954,0,0,1-1.441.01c-.408-.02-.557.119-.547.537.02,1.1,0,2.217,0,3.32q0,3.549-.01,7.1c0,.4.129.577.547.557.477-.02.964-.01,1.441.01.408.02.547-.139.547-.547-.03-1.733-.02-3.453-.02-5.173Z" transform="translate(-152.47 -131.14)"/>
    <path id="Path_70" data-name="Path 70" class="cls-3" d="M178.487,503.631a2.012,2.012,0,0,0,1.968,1.968q4.92-.015,9.841-.01c1.044,0,2.087.01,3.131,0a1.994,1.994,0,0,0,2.038-2c.03-1.242,0-2.485.02-3.728.01-.408-.169-.507-.537-.507q-5.919.015-11.829.01a2.528,2.528,0,0,1-.547-.04,1.029,1.029,0,0,1-.805-1.1.962.962,0,0,1,.924-.984c.825-.04,1.66-.03,2.485-.04H196.21c1.074,0,1.431.348,1.441,1.422,0,1.61-.05,3.211.01,4.821a4.273,4.273,0,0,1-4.264,4.314.9.9,0,0,0-1.014.745A5.516,5.516,0,0,1,188,512.3a5.716,5.716,0,0,1-6.561-4.066c-.109-.4-.288-.467-.656-.467a4.349,4.349,0,0,1-3.728-1.809,5.093,5.093,0,0,1-.746-3.708c.06-.547.527-.855,1.173-.855,1.958-.01,3.906-.01,5.865-.01q3.8,0,7.6.01a1.072,1.072,0,0,1,1.133,1.471,1.09,1.09,0,0,1-1.153.686c-1.392.01-2.783.01-4.175.01h-7.6c-.228.03-.436.059-.665.069Zm5.119,4.2a3.457,3.457,0,0,0,3.767,2.406,3.331,3.331,0,0,0,2.9-2.406Z" transform="translate(-158.735 -445.079)"/>
    <g id="Group_7" data-name="Group 7">
      <path id="Path_71" data-name="Path 71" class="cls-4" d="M1.843,269.555c-.268,0-.527.02-.8,0a1.079,1.079,0,0,1-1.054-1.044,1.1,1.1,0,0,1,1.054-1.163,9.338,9.338,0,0,1,1.491.03,1.074,1.074,0,0,1,1.054,1.193,1.056,1.056,0,0,1-1.183.994c-.2,0-.378,0-.567-.01Z" transform="translate(0.007 -238.059)"/>
      <path id="Path_72" data-name="Path 72" class="cls-4" d="M274.679,1.784c0,.249.01.5,0,.746a1.143,1.143,0,0,1-1.054,1.113A1.1,1.1,0,0,1,272.462,2.6a11.267,11.267,0,0,1,0-1.531,1.159,1.159,0,0,1,1.123-1.074,1.184,1.184,0,0,1,1.093,1.093c.011.229,0,.457,0,.7Z" transform="translate(-245.354 2.704)"/>
      <path id="Path_73" data-name="Path 73" class="cls-4" d="M83.6,76.9a2.973,2.973,0,0,1,2.2,2.157.993.993,0,0,1-.626.934.973.973,0,0,1-1.113-.129,13.51,13.51,0,0,1-1.183-1.2.973.973,0,0,1-.139-1.153A1.031,1.031,0,0,1,83.6,76.9Z" transform="translate(-74.395 -66.557)"/>
      <path id="Path_74" data-name="Path 74" class="cls-4" d="M78.018,454.158a1.09,1.09,0,0,1-.9-1.779,13.4,13.4,0,0,1,1.213-1.163,1.043,1.043,0,0,1,1.362.05.96.96,0,0,1,.219,1.332,11.953,11.953,0,0,1-1.481,1.441.9.9,0,0,1-.413.119Z" transform="translate(-69.22 -403.459)"/>
      <path id="Path_75" data-name="Path 75" class="cls-4" d="M456.032,458.706a1.111,1.111,0,0,1-.646,1.064.975.975,0,0,1-1.153-.139,12.576,12.576,0,0,1-1.143-1.163,1.073,1.073,0,0,1,.02-1.411,1.04,1.04,0,0,1,1.392-.189,15,15,0,0,1,1.4,1.461A.749.749,0,0,1,456.032,458.706Z" transform="translate(-407.821 -408.583)"/>
      <path id="Path_76" data-name="Path 76" class="cls-4" d="M533.263,278.084c-.249,0-.5.01-.745,0a1.048,1.048,0,0,1-1.044-.994,1.036,1.036,0,0,1,.915-1.153,8.861,8.861,0,0,1,1.779.01,1,1,0,0,1,.9,1.113,1.068,1.068,0,0,1-1.014,1.024c-.258.02-.527,0-.785,0Z" transform="translate(-478.64 -245.774)"/>
      <path id="Path_77" data-name="Path 77" class="cls-4" d="M459.554,86.017a1.045,1.045,0,0,1-1.074-.606.994.994,0,0,1,.169-1.153,14.829,14.829,0,0,1,1.133-1.1,1.086,1.086,0,0,1,1.412-.04,1.023,1.023,0,0,1,.268,1.342,13.956,13.956,0,0,1-1.561,1.5C459.812,86.027,459.623,86.007,459.554,86.017Z" transform="translate(-412.804 -71.936)"/>
      <path id="Path_78" data-name="Path 78" class="cls-4" d="M378.411,33.2a1.108,1.108,0,0,1,1.123,1.083,1.406,1.406,0,0,1-1.2,1.412A1.073,1.073,0,0,1,377.2,34.64a1.364,1.364,0,0,1,1.211-1.44Z" transform="translate(-339.703 -27.2)"/>
      <path id="Path_79" data-name="Path 79" class="cls-4" d="M512.792,175.323c-.03-.815.716-1.193,1.382-1.262a1.121,1.121,0,0,1,1.133,1.083,1.447,1.447,0,0,1-1.432,1.252A1.1,1.1,0,0,1,512.792,175.323Z" transform="translate(-461.818 -154.056)"/>
      <path id="Path_80" data-name="Path 80" class="cls-4" d="M32.115,369.592a1.309,1.309,0,0,1-1.441,1.183,1.08,1.08,0,0,1-1.074-1.064,1.409,1.409,0,0,1,1.441-1.213,1.028,1.028,0,0,1,1.074,1.094Z" transform="translate(-26.657 -329.17)"/>
      <path id="Path_81" data-name="Path 81" class="cls-4" d="M510.91,377.925a1.38,1.38,0,0,1-1.411-1.252,1.127,1.127,0,0,1,1.123-1.083A1.41,1.41,0,0,1,512,376.832a1.09,1.09,0,0,1-1.09,1.093Z" transform="translate(-458.853 -335.555)"/>
      <path id="Path_82" data-name="Path 82" class="cls-4" d="M172.082,31.7a1.355,1.355,0,0,1,1.223,1.431,1.069,1.069,0,0,1-1.093,1.054A1.3,1.3,0,0,1,171,32.764a1.051,1.051,0,0,1,1.082-1.064Z" transform="translate(-154 -25.85)"/>
      <path id="Path_83" data-name="Path 83" class="cls-4" d="M34.4,169.185a1.351,1.351,0,0,1-1.4-1.2,1.055,1.055,0,0,1,1.1-1.083,1.3,1.3,0,0,1,1.392,1.252,1.053,1.053,0,0,1-1.092,1.031Z" transform="translate(-29.717 -147.61)"/>
    </g>
  </g>
</svg>
