<svg xmlns="http://www.w3.org/2000/svg" xmlns:xlink="http://www.w3.org/1999/xlink" viewBox="0 0 71.157 70">
  <defs>
    <style>
      .cls-1, .cls-3, .cls-4, .cls-5 {
        fill: none;
      }

      .cls-2 {
        opacity: 0.12;
        fill: url(#linear-gradient);
      }

      .cls-3 {
        stroke: #009bff;
      }

      .cls-3, .cls-4, .cls-5 {
        stroke-linecap: round;
        stroke-linejoin: round;
        stroke-miterlimit: 10;
      }

      .cls-3, .cls-5 {
        stroke-width: 2px;
      }

      .cls-4, .cls-5 {
        stroke: #7d5ab5;
      }
    </style>
    <linearGradient id="linear-gradient" x1="0.5" x2="0.5" y2="1" gradientUnits="objectBoundingBox">
      <stop offset="0" stop-color="#004aff" stop-opacity="0"/>
      <stop offset="1" stop-color="#004aff"/>
    </linearGradient>
  </defs>
  <g id="hom-new-system" transform="translate(-1002.843 -3182)">
    <rect id="Rectangle_2" data-name="Rectangle 2" class="cls-1" width="70" height="70" transform="translate(1004 3182)"/>
    <path id="Path_110" data-name="Path 110" class="cls-2" d="M23.333,0A23.333,23.333,0,1,1,0,23.333,23.333,23.333,0,0,1,23.333,0Z" transform="translate(1027.333 3194)"/>
    <g id="Group_11" data-name="Group 11" transform="translate(354.107 301.376)">
      <circle id="Ellipse_9" data-name="Ellipse 9" class="cls-3" cx="12.91" cy="12.91" r="12.91" transform="translate(661.272 2906.713) rotate(-11.362)"/>
      <path id="Path_111" data-name="Path 111" class="cls-4" d="M696.291,2961.98a8.721,8.721,0,0,1-3.939-.9,9.076,9.076,0,0,1-4.651-5.174" transform="translate(-19.862 -36.007)"/>
      <path id="Path_112" data-name="Path 112" class="cls-5" d="M768.044,2940.02a3.2,3.2,0,1,1,.127-2.451A3.206,3.206,0,0,1,768.044,2940.02Z" transform="translate(-58.864 -25.258)"/>
      <path id="Path_113" data-name="Path 113" class="cls-5" d="M669.344,2932.53a3.206,3.206,0,1,1-5.791-2.753,3.244,3.244,0,0,1,4.272-1.519,3.189,3.189,0,0,1,1.519,4.272Z" transform="translate(-7.012 -21.326)"/>
      <path id="Path_114" data-name="Path 114" class="cls-5" d="M698.736,2990.49a6.114,6.114,0,1,1-2.848-8.164,6.114,6.114,0,0,1,2.848,8.164Z" transform="translate(-19.554 -49.568)"/>
      <circle id="Ellipse_10" data-name="Ellipse 10" class="cls-5" cx="7.832" cy="7.832" r="7.832" transform="translate(649.893 2890.046) rotate(-9.864)"/>
      <path id="Path_115" data-name="Path 115" class="cls-5" d="M746.887,2955.04a4.193,4.193,0,1,1-1.946-5.6,4.193,4.193,0,0,1,1.946,5.6Z" transform="translate(-46.773 -32.394)"/>
      <path id="Path_116" data-name="Path 116" class="cls-5" d="M693.3,2904.84a21.483,21.483,0,0,1,26.722,14.809" transform="translate(-22.804 -8.731)"/>
      <path id="Path_117" data-name="Path 117" class="cls-5" d="M667.422,2963.64a21.156,21.156,0,0,1-6.36-10.157,20.83,20.83,0,0,1-.759-7.784" transform="translate(-5.422 -30.648)"/>
      <path id="Path_118" data-name="Path 118" class="cls-5" d="M733.076,2975.9a21.559,21.559,0,0,1-8.876,7.262" transform="translate(-39.038 -46.514)"/>
    </g>
  </g>
</svg>
