<svg xmlns="http://www.w3.org/2000/svg" xmlns:xlink="http://www.w3.org/1999/xlink" viewBox="0 0 100.055 100">
  <defs>
    <style>
      .cls-1, .cls-3, .cls-4, .cls-5, .cls-6, .cls-7, .cls-9 {
        fill: none;
      }

      .cls-2 {
        opacity: 0.12;
        fill: url(#linear-gradient);
      }

      .cls-3, .cls-4, .cls-5 {
        stroke: #7d5ab5;
      }

      .cls-3 {
        stroke-linecap: square;
        stroke-linejoin: bevel;
      }

      .cls-3, .cls-4, .cls-5, .cls-9 {
        stroke-miterlimit: 10;
      }

      .cls-3, .cls-4 {
        stroke-width: 2.5px;
      }

      .cls-4, .cls-5 {
        stroke-linecap: round;
      }

      .cls-4, .cls-5, .cls-9 {
        stroke-linejoin: round;
      }

      .cls-5, .cls-6, .cls-9 {
        stroke-width: 2px;
      }

      .cls-6, .cls-7, .cls-9 {
        stroke: #009bff;
      }

      .cls-8 {
        fill: #009bff;
      }

      .cls-10 {
        stroke: none;
      }
    </style>
    <linearGradient id="linear-gradient" x1="0.5" x2="0.5" y2="1" gradientUnits="objectBoundingBox">
      <stop offset="0" stop-color="#004aff" stop-opacity="0"/>
      <stop offset="1" stop-color="#004aff"/>
    </linearGradient>
  </defs>
  <g id="hom-fast" transform="translate(-12220.945 -1918)">
    <rect id="Rectangle_1" data-name="Rectangle 1" class="cls-1" width="100" height="100" transform="translate(12221 1918)"/>
    <circle id="Ellipse_2" data-name="Ellipse 2" class="cls-2" cx="35.769" cy="35.769" r="35.769" transform="translate(12249.462 1932)"/>
    <g id="Group_5" data-name="Group 5" transform="translate(0 -1.829)">
      <g id="Group_3" data-name="Group 3" transform="translate(10016.7 -306.877)">
        <path id="Path_14" data-name="Path 14" class="cls-3" d="M2205.6,2268.62v-6.967s0-5.452,5.452-5.452h41.3s5.856-.1,5.856,5.452v4.847" transform="translate(0.001)"/>
        <g id="Group_2" data-name="Group 2" transform="translate(2205.5 2266.6)">
          <path id="Path_15" data-name="Path 15" class="cls-4" d="M2282.42,2282.4h-21.2a2.025,2.025,0,0,0-2.019,2.02v11.107a2.025,2.025,0,0,0,2.019,2.02h21.2a2.025,2.025,0,0,0,2.02-2.02V2284.42a2.026,2.026,0,0,0-2.02-2.02Z" transform="translate(-2204.978 -2266.345)"/>
          <path id="Path_16" data-name="Path 16" class="cls-4" d="M2259.72,2295.68v-11.107a2.025,2.025,0,0,1,2.019-2.02H2278.7v-13.025a2.975,2.975,0,0,0-3.029-3.029h-67.146a2.975,2.975,0,0,0-3.029,3.029v41.2a2.975,2.975,0,0,0,3.029,3.029h67.146a2.975,2.975,0,0,0,3.029-3.029V2297.7h-16.963a2.026,2.026,0,0,1-2.017-2.02Z" transform="translate(-2205.5 -2266.5)"/>
        </g>
        <path id="Path_17" data-name="Path 17" class="cls-5" d="M2273.77,2289.74a3.837,3.837,0,1,1-3.837-3.837,3.772,3.772,0,0,1,3.837,3.837Z" transform="translate(0.589 0.288)"/>
      </g>
      <g id="Group_4" data-name="Group 4" transform="translate(5 9)">
        <g id="Ellipse_3" data-name="Ellipse 3" class="cls-6" transform="translate(12267 1925)">
          <circle class="cls-10" cx="11.5" cy="11.5" r="11.5"/>
          <circle class="cls-1" cx="11.5" cy="11.5" r="10.5"/>
        </g>
        <g id="Ellipse_4" data-name="Ellipse 4" class="cls-7" transform="translate(12271 1929)">
          <circle class="cls-10" cx="7.5" cy="7.5" r="7.5"/>
          <circle class="cls-1" cx="7.5" cy="7.5" r="7"/>
        </g>
      </g>
      <path id="Path_18" data-name="Path 18" class="cls-8" d="M13.282,1l-2.7,5.518L7.453,1H3.863L0,9.945H3.606L5.907,4.6,8.443,9.13l.447.8H12.5L16.865,1ZM10.1,7.435l.513.583S10.111,7.451,10.1,7.435Z" transform="translate(12229.971 1986.7)"/>
      <line id="Line_1" data-name="Line 1" class="cls-9" x2="11.772" transform="translate(12273.678 1936.601) rotate(-90)"/>
      <line id="Line_2" data-name="Line 2" class="cls-9" x1="5.886" transform="translate(12279.895 1928.715) rotate(-90)"/>
      <line id="Line_3" data-name="Line 3" class="cls-9" x1="2.572" transform="translate(12279.895 1934.373) rotate(-90)"/>
      <line id="Line_4" data-name="Line 4" class="cls-9" x2="8.972" transform="translate(12285.802 1931.802) rotate(-90)"/>
    </g>
  </g>
</svg>
