<svg xmlns="http://www.w3.org/2000/svg" xmlns:xlink="http://www.w3.org/1999/xlink" viewBox="0 0 100.139 100">
  <defs>
    <style>
      .cls-1, .cls-3, .cls-4 {
        fill: none;
      }

      .cls-2 {
        opacity: 0.12;
        fill: url(#linear-gradient);
      }

      .cls-3, .cls-4 {
        stroke: #7d5ab5;
        stroke-miterlimit: 10;
      }

      .cls-3 {
        stroke-width: 2.5px;
      }

      .cls-4 {
        stroke-width: 2.2px;
      }

      .cls-5 {
        fill: #009bff;
      }
    </style>
    <linearGradient id="linear-gradient" x1="0.5" x2="0.5" y2="1" gradientUnits="objectBoundingBox">
      <stop offset="0" stop-color="#004aff" stop-opacity="0"/>
      <stop offset="1" stop-color="#004aff"/>
    </linearGradient>
  </defs>
  <g id="hom-international" transform="translate(-0.002)">
    <path id="Path_84" data-name="Path 84" class="cls-1" d="M.141,0h100V100H.141Z"/>
    <circle id="Ellipse_5" data-name="Ellipse 5" class="cls-2" cx="35.769" cy="35.769" r="35.769" transform="translate(28.603 14)"/>
    <g id="Group_8" data-name="Group 8" transform="translate(77.784 13.222) rotate(90)">
      <path id="Path_85" data-name="Path 85" class="cls-3" d="M74.226,38.9a34.148,34.148,0,0,0,.345-4.833C74.572,15.19,57.885,0,37.286,0S0,15.305,0,34.063c0,1.266.115,2.531.23,3.8"/>
      <path id="Path_86" data-name="Path 86" class="cls-3" d="M0,0C2.071,17.032,17.837,30.381,37.056,30.381,55.814,30.381,71.464,17.607,74,1.036" transform="translate(0.23 37.746)"/>
    </g>
    <g id="Group_9" data-name="Group 9" transform="translate(40.037 13.107) rotate(90)">
      <path id="Path_87" data-name="Path 87" class="cls-4" d="M.345,0A34.143,34.143,0,0,0,0,4.833,32.847,32.847,0,0,0,10.472,28.54V19.909A33.279,33.279,0,0,1,.345,0Z"/>
      <path id="Path_88" data-name="Path 88" class="cls-4" d="M9.091,8.4V0A37.714,37.714,0,0,1,0,5.984V14.5A38.114,38.114,0,0,0,9.091,8.4Z" transform="translate(54.318 20.714)"/>
      <path id="Path_89" data-name="Path 89" class="cls-4" d="M8.631,8.516V0A42.235,42.235,0,0,1,0,2.877v8.516A36.244,36.244,0,0,0,8.631,8.516Z" transform="translate(45.687 26.583)"/>
      <path id="Path_90" data-name="Path 90" class="cls-4" d="M11.163,3.682c0-1.266-.115-2.532-.23-3.683A33.186,33.186,0,0,1,0,19.563v8.4A32.486,32.486,0,0,0,11.163,3.682Z" transform="translate(63.409 1.151)"/>
      <path id="Path_91" data-name="Path 91" class="cls-4" d="M8.631,11.968V3.452A40.976,40.976,0,0,1,0,0V8.631a46.191,46.191,0,0,0,8.631,3.337Z" transform="translate(18.068 25.548)"/>
      <path id="Path_92" data-name="Path 92" class="cls-4" d="M1.5,9.437a39.975,39.975,0,0,0,8.4-.921V0A38.9,38.9,0,0,1,1.611.921H0V9.437Z" transform="translate(35.79 29.46)"/>
      <path id="Path_93" data-name="Path 93" class="cls-4" d="M7.71,14.27V5.639A37.969,37.969,0,0,1,0,0V8.631A36.843,36.843,0,0,0,7.71,14.27Z" transform="translate(10.357 19.794)"/>
      <path id="Path_94" data-name="Path 94" class="cls-4" d="M9.091,9.9V1.381A39.433,39.433,0,0,1,0,0V8.516A38.5,38.5,0,0,0,9.091,9.9Z" transform="translate(26.814 29)"/>
    </g>
    <path id="Path_95" data-name="Path 95" class="cls-5" d="M28.292,1,22.531,12.754,15.876,1H8.228L0,20.054H7.681l4.9-11.39,5.4,9.654.953,1.7h7.7L35.924,1ZM21.521,14.707l1.093,1.242S21.538,14.74,21.521,14.707Z" transform="translate(27.084 39.052)"/>
  </g>
</svg>
