<svg xmlns="http://www.w3.org/2000/svg" xmlns:xlink="http://www.w3.org/1999/xlink" viewBox="0 0 100.555 100">
  <defs>
    <style>
      .cls-1, .cls-3, .cls-4, .cls-5, .cls-6 {
        fill: none;
      }

      .cls-2 {
        opacity: 0.12;
        fill: url(#linear-gradient);
      }

      .cls-3, .cls-4, .cls-5 {
        stroke: #7d5ab5;
      }

      .cls-3, .cls-4, .cls-6 {
        stroke-linecap: round;
      }

      .cls-3 {
        stroke-width: 3px;
      }

      .cls-4, .cls-5, .cls-6 {
        stroke-linejoin: round;
        stroke-miterlimit: 10;
      }

      .cls-4, .cls-5 {
        stroke-width: 2.5px;
      }

      .cls-6 {
        stroke: #009bff;
        stroke-width: 2px;
      }
    </style>
    <linearGradient id="linear-gradient" x1="0.5" x2="0.5" y2="1" gradientUnits="objectBoundingBox">
      <stop offset="0" stop-color="#004aff" stop-opacity="0"/>
      <stop offset="1" stop-color="#004aff"/>
    </linearGradient>
  </defs>
  <g id="hom-privacy" transform="translate(0.055)">
    <path id="Path_140" data-name="Path 140" class="cls-1" d="M.5,0h100V100H.5Z"/>
    <circle id="Ellipse_14" data-name="Ellipse 14" class="cls-2" cx="35.769" cy="35.769" r="35.769" transform="translate(28.962 14)"/>
    <g id="Group_15" data-name="Group 15">
      <path id="Path_141" data-name="Path 141" class="cls-3" d="M45.894.859A37.529,37.529,0,1,1,24.869,2.115a35.423,35.423,0,0,1,3.486-1.072" transform="translate(1.5 17.774)"/>
      <path id="Path_142" data-name="Path 142" class="cls-4" d="M2727.94,3241.09v-9.612c0-2.85,1.535-5.261,3.509-5.261h16c-8.99,0-16.443-8.113-16.443-17.978,0-10.085,7.235-17.978,16.443-17.978,8.989,0,16.443,8.112,16.443,17.978,0,10.085-7.235,17.978-16.443,17.978h16c1.974,0,3.509,2.411,3.509,5.261v9.612" transform="translate(-2708.419 -3154.57)"/>
      <path id="Path_143" data-name="Path 143" class="cls-5" d="M2742.49,3175.88c0-10.086-7.235-17.978-16.443-17.978-8.989,0-16.443,8.112-16.443,17.978,0,10.085,7.235,17.977,16.443,17.977C2735.036,3193.857,2742.49,3185.746,2742.49,3175.88Z" transform="translate(-2687.011 -3122.428)"/>
      <path id="Path_144" data-name="Path 144" class="cls-6" d="M30.9,4188.07H19.827a1.328,1.328,0,0,1-1.327-1.328v-7.916a1.328,1.328,0,0,1,1.327-1.328H30.914a1.327,1.327,0,0,1,1.327,1.327v7.916a1.331,1.331,0,0,1-1.341,1.327Z" transform="translate(13.426 -4161.753)"/>
      <path id="Path_145" data-name="Path 145" class="cls-6" d="M38.781,4131.99h2.41v-3.29a4.9,4.9,0,1,0-9.791,0v3.294h2.41" transform="translate(2.493 -4116.243)"/>
    </g>
  </g>
</svg>
