<svg id="hom-no-backdoor" xmlns="http://www.w3.org/2000/svg" xmlns:xlink="http://www.w3.org/1999/xlink" viewBox="0 0 70 70">
  <defs>
    <style>
      .cls-1, .cls-3, .cls-4, .cls-5 {
        fill: none;
      }

      .cls-2 {
        opacity: 0.12;
        fill: url(#linear-gradient);
      }

      .cls-3 {
        stroke: #7d5ab5;
        stroke-linecap: round;
        stroke-linejoin: round;
      }

      .cls-3, .cls-4, .cls-5 {
        stroke-miterlimit: 10;
        stroke-width: 1.5px;
      }

      .cls-4, .cls-5 {
        stroke: #009bff;
      }

      .cls-5 {
        stroke-dasharray: 5.606 5.606;
      }
    </style>
    <linearGradient id="linear-gradient" x1="0.5" x2="0.5" y2="1" gradientUnits="objectBoundingBox">
      <stop offset="0" stop-color="#004aff" stop-opacity="0"/>
      <stop offset="1" stop-color="#004aff"/>
    </linearGradient>
  </defs>
  <path id="Path_119" data-name="Path 119" class="cls-1" d="M0,0H70V70H0Z"/>
  <path id="Path_120" data-name="Path 120" class="cls-2" d="M23.333,0A23.333,23.333,0,1,1,0,23.333,23.333,23.333,0,0,1,23.333,0Z" transform="translate(23.333 11.667)"/>
  <g id="Group_12" data-name="Group 12">
    <path id="Path_121" data-name="Path 121" class="cls-3" d="M1888.19,3677.86a.621.621,0,0,0-.657-.657h-22.075a.707.707,0,0,0-.657.657v14.782h23.388Z" transform="translate(-1861.264 -3643.71)"/>
    <path id="Path_122" data-name="Path 122" class="cls-3" d="M1886.82,3700.7H1863.5l-2.693,5.782h29.039Z" transform="translate(-1859.892 -3651.771)"/>
    <path id="Path_123" data-name="Path 123" class="cls-3" d="M.908,54.709H29.947v2.628H.908Z"/>
    <path id="Path_124" data-name="Path 124" class="cls-3" d="M1938.19,3659.76a.621.621,0,0,0-.656-.658H1915.46a.708.708,0,0,0-.657.658v14.78h23.388Z" transform="translate(-1878.415 -3637.502)"/>
    <path id="Path_125" data-name="Path 125" class="cls-3" d="M1936.82,3682.5h-23.389l-2.628,5.848h28.973Z" transform="translate(-1877.042 -3645.528)"/>
    <path id="Path_126" data-name="Path 126" class="cls-3" d="M33.757,42.817H62.8v2.628H33.757Z"/>
    <path id="Path_127" data-name="Path 127" class="cls-4" d="M15.23,30.992V29.021"/>
    <path id="Path_128" data-name="Path 128" class="cls-5" d="M1882.6,3658.18v-9.987a2.585,2.585,0,0,1,2.694-2.693h24.57a3.031,3.031,0,0,1,2.694,1.84" transform="translate(-1867.369 -3632.838)"/>
    <path id="Path_129" data-name="Path 129" class="cls-4" d="M1928.4,3651.1v1.97" transform="translate(-1883.079 -3634.76)"/>
  </g>
</svg>
