<svg xmlns="http://www.w3.org/2000/svg" xmlns:xlink="http://www.w3.org/1999/xlink" viewBox="0 0 339.5 354.602">
  <defs>
    <style>
      .cls-1 {
        fill: none;
        opacity: 0.5;
      }

      .cls-2 {
        fill: url(#linear-gradient);
      }

      .cls-3 {
        fill: #fff;
      }

      .cls-4 {
        opacity: 0.12;
        fill: url(#linear-gradient-2);
      }

      .cls-5 {
        opacity: 0.1;
        fill: url(#linear-gradient-4);
      }

      .cls-6 {
        opacity: 0.4;
        fill: url(#linear-gradient-5);
      }

      .cls-7 {
        filter: url(#Path_105);
      }
    </style>
    <linearGradient id="linear-gradient" x1="-0.485" y1="1.207" x2="0.837" y2="0.086" gradientUnits="objectBoundingBox">
      <stop offset="0" stop-color="#a34bc1"/>
      <stop offset="1" stop-color="#25a4f2"/>
    </linearGradient>
    <filter id="Path_105" x="0" y="0" width="337.474" height="354.602" filterUnits="userSpaceOnUse">
      <feOffset dx="1" dy="13" input="SourceAlpha"/>
      <feGaussianBlur stdDeviation="17.5" result="blur"/>
      <feFlood flood-color="#9c4ec3" flood-opacity="0.349"/>
      <feComposite operator="in" in2="blur"/>
      <feComposite in="SourceGraphic"/>
    </filter>
    <linearGradient id="linear-gradient-2" x1="0.5" x2="0.5" y2="1" gradientUnits="objectBoundingBox">
      <stop offset="0" stop-color="#fff" stop-opacity="0"/>
      <stop offset="1" stop-color="#fff"/>
    </linearGradient>
    <linearGradient id="linear-gradient-4" y1="0.5" x2="1.107" y2="0.192" gradientUnits="objectBoundingBox">
      <stop offset="0" stop-color="#9c4ec3"/>
      <stop offset="1" stop-color="#4aa9e4"/>
    </linearGradient>
    <linearGradient id="linear-gradient-5" y1="0.5" x2="1.107" y2="0.192" gradientUnits="objectBoundingBox">
      <stop offset="0" stop-color="#a34bc1"/>
      <stop offset="1" stop-color="#4aa9e4"/>
    </linearGradient>
  </defs>
  <g id="hom-navhub" transform="translate(0 0)">
    <path id="Path_104" data-name="Path 104" class="cls-1" d="M13.5,1.5h326v326H13.5Z"/>
    <g class="cls-7" transform="matrix(1, 0, 0, 1, 0, 0)">
      <path id="Path_105-2" data-name="Path 105" class="cls-2" d="M14.742,184.958c-34.086-65.421,1.615-122.052,1.615-122.052s26.252,23.2,34.564,30.737,16.565.24,17.163-3.887-1.794-14.83,5.86-19.734,17.4-2.213,20.75,4.545,2.273,15.608-5.262,18.957-10.4,6.817-9.632,13.576,9.927,8.133,15.07,9.927c4.844,1.674,25.654,9.209,28.345,10.166-.06,0,6.458,32.173,7.475,37.614s-4.844,7.415-8.85,5.86-12.08-9.808-23.681-2.273-9.329,25.714,1.913,31.336,17.223-1.376,21.349-3.648,10.047,0,9.449,5.92-9.688,47.6-9.688,47.6h-.116c-3.216,0-73.029-.74-106.324-64.644ZM183.2,124.44c-7.535-.479-14.651-5.8-13.814-13.993s-.717-12.438-6.937-15.129-12.02,4.485-16.146,8.073c-3.887,3.349-20.81,17.641-22.963,19.5.06-.06-31.036-10.465-36.3-12.319s-4.006-7.954-.658-10.585S100.854,94.42,100.2,80.606,82.615,59.676,72.15,66.613s-7.415,15.608-7.535,20.332c-.06,4.724-5.023,8.731-9.867,5.2C49.9,88.679,18.39,59.916,18.39,59.916S53.971-3.054,127.645.116,232.474,62.427,232.474,62.427,199.225,73.55,188.581,77.019s-8.492,14.232-5.2,16.8,13.754,5.861,14.173,14.89c.406,8.832-6.415,15.745-13.714,15.745C183.624,124.458,183.412,124.452,183.2,124.44Z" transform="translate(51.5 39.5)"/>
    </g>
    <path id="Path_106" data-name="Path 106" class="cls-3" d="M218.207,56.741V46.858l-8.739-5.306V34.114L198.284,27.3l-11.548,6.762v7.907l-8.271,4.838V56.69L171.6,60.7V73.5l11.548,6.71,7.022-4.213,8.479,4.942,7.958-4.786,7.022,4.057,11.183-6.762v-12.7ZM203.694,72.606V62.2l9.155,5.358V78.016l-7.282-4.265Zm9.779-6.5-8.739-5.15,3.069-1.821,5.826-3.381,8.583,5.2Zm-5.618-25.488v5.41l-8.791,5.15v-10.4l8.843-5.15-.052,4.994Zm-.988-6.242-8.739,5.1-8.739-5.15,8.843-5.2Zm-18.622,1.144,9.207,5.41V51.384l-8.791-5.1-.416-.26V35.518Zm-1.352,22.575,4.838,2.965-8.687,5.1-8.739-5.15,6.5-3.8,2.341-1.352ZM173.11,62.151l9.207,5.41V78.016l-9.207-5.358Zm10.82,15.813V67.4l8.635-5.046.208,6.97v3.329l-.416.26L188.5,75.1l.1.052Zm21.119-2.653-6.45,3.9-6.97-4.057,1.456-.884,1.3-.728-.1-4.213V60.747l-6.658-4.057-4.473-2.757-3.121,1.821V47.69l6.71-3.953V46.91l1.352.78,10.2,5.93,10.767-6.5.364-.208V43.425l7.178,4.369V55.7l-2.913-1.665-.052.052-.052-.052-6.606,3.8-4.838,2.809V60.7l-.1.052v12.8l2.653,1.561Zm9.363,2.653V67.4l8.843-5.15v10.4Z" transform="translate(-13.471 32.536)"/>
    <path id="Path_107" data-name="Path 107" class="cls-3" d="M82.921,223.9,60.8,236.877l-.179-.12-.179.3-1.136.658v26.192L82.921,277.78l22.9-13.814V237.774Zm0,2.093L104.09,238.85v22.664l-5.741-3.349V242.019L82.861,232.63,68.21,241.242l-5.561-3.289ZM61.034,239.149l5.741,3.349v16.086l-5.741,3.169Zm20.87,35.94L61.812,263.368l5.8-3.169L81.9,268.511Zm0-8.611-13.276-7.714v-15.19L81.9,251.348v15.129Zm.718-16.266.06-.119.06.119Zm0-.538-12.678-7.415L82.8,234.724l12.5,7.6Zm13.933-6.04v15.129L83.7,266.478V251.169ZM83.7,268.571l14.232-8.551,5.621,3.289L83.7,275.268Z" transform="translate(24.105 -56.423)"/>
    <circle id="Ellipse_7" data-name="Ellipse 7" class="cls-4" cx="19.756" cy="19.756" r="19.756" transform="translate(102.283 174.878)"/>
    <circle id="Ellipse_8" data-name="Ellipse 8" class="cls-4" cx="19.756" cy="19.756" r="19.756" transform="translate(185.405 65.443)"/>
    <path id="Path_108" data-name="Path 108" class="cls-5" d="M188.547,293.925s7-34.325,9.329-45.328-8.073-14.472-11.96-12.917-11.96,8.97-19.973,4.784c-8.073-4.186-10.585-13.993-6.458-20.272s12.379-9.807,19.016-4.963c6.7,4.844,11.123,5.621,16.565,1.555s2.093-12.678,1.076-18c-.957-5.023-4.844-26.85-5.382-29.6,0,.06,24.638-21.648,28.824-25.3,4.186-3.588,8.85.478,9.448,4.724s-2.452,15.309,9.867,21.648c12.259,6.339,26.97-4.784,26.193-17.282-.777-12.558-9.807-14.232-13.874-16.684s-5.023-8.671.419-11.123S297.682,109.8,297.682,109.8s36.9,62.252-2.751,124.5-106.384,59.625-106.384,59.625Z" transform="translate(-11.795 -4.645)"/>
    <path id="Path_109" data-name="Path 109" class="cls-6" d="M33.338,54.676H23.419V44.757H27.87V41.37L16.548,34.741,13.21,36.677H9.919v4.016H0v-9.87H9.919v4.451h2.9l2.9-1.694V20.468l-2.9-1.694h-2.9v4.451H0V13.306H9.919v4.016H13.21l3.629,2.129L27.87,12.968V9.919H23.419V0h9.967V9.919H29.37v3.048l10.645,6.484,3.677-2.178h3.581V13.21h9.919v9.919H47.273V18.677H44.08l-3.049,1.791V33.29l3.242,1.936h2.9V30.774H57.1v9.919H47.176V36.677h-3.29L40.4,34.644,29.32,41.321v3.436h4.016v9.918Zm-8.344-8.341v6.936H31.93V46.336Zm14.538-25-10.258,6v12.29l10.258-6.193Zm-22.4-.1v12.2l10.693,6.193V27.483ZM1.518,32.464V39.4H8.454V32.464Zm47.484,0v6.4h6.4v-6.4ZM28.548,14.177,18.241,20.226,28.4,26.177l10.161-5.951Zm-27.03.68v6.936H8.454V14.858Zm47.484,0v6.4h6.4v-6.4ZM24.994,1.519V8.455H31.93V1.519ZM45,48.773H43.21v-1.79H45Zm-31.064,0h-1.79v-1.79h1.79ZM45,7.355H43.21V5.565H45Zm-31.064,0h-1.79V5.565h1.79Z" transform="translate(205.146 183.418)"/>
  </g>
</svg>
