<svg xmlns="http://www.w3.org/2000/svg" xmlns:xlink="http://www.w3.org/1999/xlink" viewBox="0 0 423 299.194">
  <defs>
    <style>
      .cls-1 {
        opacity: 0.12;
        fill: url(#linear-gradient);
      }

      .cls-2, .cls-5 {
        fill: #fff;
      }

      .cls-2, .cls-3 {
        stroke: #fff;
        opacity: 0.15;
      }

      .cls-3, .cls-4 {
        fill: none;
      }

      .cls-3 {
        stroke-linecap: round;
        stroke-width: 6px;
      }

      .cls-6 {
        stroke: none;
      }
    </style>
    <linearGradient id="linear-gradient" x1="0.5" x2="0.5" y2="1" gradientUnits="objectBoundingBox">
      <stop offset="0" stop-color="#fff" stop-opacity="0"/>
      <stop offset="1" stop-color="#fff"/>
    </linearGradient>
  </defs>
  <g id="link-hero" transform="translate(-3345 -6516)">
    <path id="Path_15720" data-name="Path 15720" class="cls-1" d="M105,0A105,105,0,1,1,0,105,105,105,0,0,1,105,0Z" transform="translate(3558 6559)"/>
    <g id="Group_3381" data-name="Group 3381" transform="translate(3964.275 6400.83)">
      <g id="Ellipse_93" data-name="Ellipse 93" class="cls-2" transform="translate(-389.749 168.141)">
        <circle class="cls-6" cx="5.588" cy="5.588" r="5.588"/>
        <circle class="cls-4" cx="5.588" cy="5.588" r="5.088"/>
      </g>
      <g id="Ellipse_219" data-name="Ellipse 219" class="cls-2" transform="translate(-461.749 130.141)">
        <circle class="cls-6" cx="3.588" cy="3.588" r="3.588"/>
        <circle class="cls-4" cx="3.588" cy="3.588" r="3.088"/>
      </g>
      <g id="Ellipse_97" data-name="Ellipse 97" class="cls-2" transform="translate(-538.053 294.349)">
        <circle class="cls-6" cx="5.588" cy="5.588" r="5.588"/>
        <circle class="cls-4" cx="5.588" cy="5.588" r="5.088"/>
      </g>
      <g id="Ellipse_98" data-name="Ellipse 98" class="cls-2" transform="translate(-311.257 390.654)">
        <circle class="cls-6" cx="5.588" cy="5.588" r="5.588"/>
        <circle class="cls-4" cx="5.588" cy="5.588" r="5.088"/>
      </g>
      <g id="Ellipse_94" data-name="Ellipse 94" class="cls-2" transform="translate(-553.72 190.229)">
        <circle class="cls-6" cx="3.726" cy="3.726" r="3.726"/>
        <circle class="cls-4" cx="3.726" cy="3.726" r="3.226"/>
      </g>
      <g id="Ellipse_96" data-name="Ellipse 96" class="cls-2" transform="translate(-400.091 115.17)">
        <circle class="cls-6" cx="3.726" cy="3.726" r="3.726"/>
        <circle class="cls-4" cx="3.726" cy="3.726" r="3.226"/>
      </g>
      <line id="Line_161" data-name="Line 161" class="cls-3" x2="86.619" transform="translate(-526.862 387.011)"/>
      <line id="Line_2516" data-name="Line 2516" class="cls-3" x2="51.362" transform="translate(-510.862 155.011)"/>
      <line id="Line_174" data-name="Line 174" class="cls-3" x2="147.159" transform="translate(-616.275 356.276)"/>
      <line id="Line_164" data-name="Line 164" class="cls-3" x2="92.07" transform="translate(-558.775 251.647)"/>
      <line id="Line_165" data-name="Line 165" class="cls-3" x2="46.313" transform="translate(-596.088 226.019)"/>
      <line id="Line_169" data-name="Line 169" class="cls-3" x2="8.382" transform="translate(-401.125 411.364)"/>
      <line id="Line_162" data-name="Line 162" class="cls-3" x2="16.825" transform="translate(-496.126 182.107)"/>
      <line id="Line_173" data-name="Line 173" class="cls-3" x2="16.825" transform="translate(-405.341 373.188)"/>
      <line id="Line_166" data-name="Line 166" class="cls-3" x2="16.825" transform="translate(-502.459 287.723) rotate(-45)"/>
      <line id="Line_171" data-name="Line 171" class="cls-3" x2="16.825" transform="translate(-315.407 145.632) rotate(-45)"/>
      <line id="Line_163" data-name="Line 163" class="cls-3" x2="16.825" transform="translate(-487.744 173.724) rotate(90)"/>
      <line id="Line_172" data-name="Line 172" class="cls-3" x2="16.825" transform="translate(-396.959 364.805) rotate(90)"/>
      <line id="Line_167" data-name="Line 167" class="cls-3" x2="16.825" transform="translate(-502.459 275.867) rotate(45)"/>
      <line id="Line_170" data-name="Line 170" class="cls-3" x2="16.825" transform="translate(-315.407 133.777) rotate(45)"/>
    </g>
    <rect id="Rectangle_4373" data-name="Rectangle 4373" class="cls-4" width="241" height="241" transform="translate(3527 6544)"/>
    <g id="Group_21" data-name="Group 21" transform="translate(-448.823 194.231)">
      <g id="Group_20" data-name="Group 20" transform="translate(3948.124 6402.861)">
        <path id="Path_195" data-name="Path 195" class="cls-5" d="M188.676,135.57c-11.918-.41-24.193-5.818-33.908-16.851a46.665,46.665,0,0,1-9.181-15.51c-.374-1.069-.885-1.708-2.1-1.485-4.671.862-8.185-.7-10.666-4.825-.888-1.472-2.039-3.33-3.458-3.779-1.295-.41-3.1.914-4.713,1.354a15.909,15.909,0,0,1-12.2-1.288,1.589,1.589,0,0,0-2.422.5c-1.94,2.36-3.917,4.7-6,6.932a4.1,4.1,0,0,1-2.317,1.059,18.907,18.907,0,0,1-3.923.026c-1.187-.089-1.714.4-2.121,1.488C90.767,116.33,82,126.081,69.081,131.44c-18.234,7.568-35.406,5.192-51.021-7.1A45.786,45.786,0,0,1,4.785,107.365,48.249,48.249,0,0,1,1.17,75.932c2.707-12.278,9.253-22.056,19.289-29.644,2.262-1.711,3.956-4.186,5.857-6.359,5.562-6.365,10.994-12.855,16.7-19.093,2.108-2.3,4.861-4.019,7.27-6.057a7.477,7.477,0,0,0,1.862-2.117C56.672,3.884,64-.262,73.7.042c9.142.288,16.077,4.494,19.935,12.986a26.873,26.873,0,0,1,1.626,6.791A2.35,2.35,0,0,0,96.578,21.8,67.206,67.206,0,0,0,115.4,29.126a25.821,25.821,0,0,0,14.32-1.314c3.986-1.445,7.847-3.242,11.774-4.854a1.688,1.688,0,0,0,1.15-1.895c-.528-10.944,8.912-20.279,20.237-21,9.774-.623,17.434,3.065,22.374,11.78a2.194,2.194,0,0,0,.862.921c6.67,3.006,11.488,8.181,16.1,13.626,4.831,5.7,9.653,11.416,14.648,16.972,1.462,1.626,3.527,2.7,5.287,4.071a48.406,48.406,0,0,1,16.992,24.835,47.263,47.263,0,0,1-.7,30.227c-5.244,14.563-15.189,24.74-29.772,30.165C202.538,134.947,197.916,135.61,188.676,135.57ZM31.873,40.034c.682-.164.931-.229,1.18-.282,4.205-.888,8.375-2.281,12.619-2.57,14.871-1.006,27.753,3.789,38.513,14.183a4.692,4.692,0,0,0,2.494,1.308Q97.25,53.848,107.847,54.8c4.291.38,8.63,1.006,12.9.734,10.938-.7,21.849-1.839,32.771-2.816a6.535,6.535,0,0,0,4.166-1.839c12.39-11.587,26.979-15.93,43.705-12.9,2,.364,3.973.9,6.015,1.373-.046-.229-.033-.357-.089-.426-4.579-5.271-8.915-10.777-13.8-15.75-10.712-10.9-25.874-12.246-38.477-3.622a96.3,96.3,0,0,1-22.8,11.951,35.018,35.018,0,0,1-23.21.364A91.67,91.67,0,0,1,84.9,19.361a29.336,29.336,0,0,0-33.761-.02c-4.766,3.347-8.237,7.922-11.993,12.239C36.8,34.275,34.478,37,31.873,40.034ZM94.415,86.283a45.075,45.075,0,1,0-45.079,45.111A45.086,45.086,0,0,0,94.415,86.283Zm97.4-45.059a45.083,45.083,0,1,0,45.167,45.229A45.244,45.244,0,0,0,191.819,41.224Zm-83.989,48.53c-6.516-8.181-4.454-17.831,1.144-22.944a16.387,16.387,0,0,1,21.423-.688,15.52,15.52,0,0,1,5.674,9.486,16.342,16.342,0,0,1-3.789,14.081,58.258,58.258,0,0,1,4.694,5.579c1.731,2.652,4.058,2.37,6.732,2.026-2.819-14.468-.318-27.8,8.191-39.939-10.607.852-20.928,2.311-31.256,2.334s-20.689-1.38-31.2-2.173c8.443,12.108,10.9,25.4,8,40.211,1.619-.315,3.35-.134,4.182-.911A87.282,87.282,0,0,0,107.831,89.754Zm.21-11.02A11.944,11.944,0,0,0,120,90.852a12.1,12.1,0,1,0-11.96-12.118Zm39.025-59.006c4.851-3.035,9.243-6.677,14.783-8.325a35.572,35.572,0,0,1,17-.983C175.7,5.28,166.027,2.8,159,5.054,150.861,7.67,146.662,14.943,147.065,19.729ZM90.7,18.372C89.744,11.006,83.244,5.749,76.627,4.5,68.2,2.91,60.454,7.217,58.462,11.095a34.68,34.68,0,0,1,16.884-.5A36.506,36.506,0,0,1,90.7,18.372Z" transform="translate(-0.005 0.005)"/>
        <path id="Path_196" data-name="Path 196" class="cls-5" d="M37.584,187.473a37.036,37.036,0,1,1,36.77,37.045C54,224.41,37.339,207.517,37.584,187.473Zm36.848,32.751a32.767,32.767,0,1,0-32.6-32.951A32.716,32.716,0,0,0,74.433,220.224Z" transform="translate(-25.265 -101.146)"/>
        <path id="Path_197" data-name="Path 197" class="cls-5" d="M546.491,187.251a37.062,37.062,0,1,1-37.232-36.963A37.114,37.114,0,0,1,546.491,187.251ZM509.259,220.1a32.777,32.777,0,1,0-32.653-32.728A32.735,32.735,0,0,0,509.259,220.1Z" transform="translate(-317.54 -101.025)"/>
        <path id="Path_200" data-name="Path 200" class="cls-5" d="M87.5,286.97a20.245,20.245,0,0,0,12.413,11.111c-.383,1.334-.751,2.6-1.157,4.018a24.063,24.063,0,0,1-15.14-13.422Z" transform="translate(-56.213 -192.907)"/>
        <path id="Path_201" data-name="Path 201" class="cls-5" d="M87.5,286.97a20.245,20.245,0,0,0,12.413,11.111c-.383,1.334-.751,2.6-1.157,4.018a24.063,24.063,0,0,1-15.14-13.422Z" transform="translate(87.312 -192.907)"/>
      </g>
      <path id="Path_15721" data-name="Path 15721" class="cls-5" d="M20.873,1l-4.25,8.672L11.713,1H6.071L0,15.061H5.667l3.615-8.4L13.27,13.78l.7,1.256h5.679L26.5,1Zm-5,10.113.806.916S15.89,11.137,15.877,11.113Z" transform="translate(4055.187 6474.652)"/>
    </g>
  </g>
</svg>
