<svg xmlns="http://www.w3.org/2000/svg" xmlns:xlink="http://www.w3.org/1999/xlink" viewBox="0 0 130 130">
  <defs>
    <style>
      .cls-1 {
        fill: none;
      }

      .cls-2 {
        opacity: 0.12;
        fill: url(#linear-gradient);
      }

      .cls-3, .cls-4 {
        fill: #7d5ab4;
      }

      .cls-4 {
        stroke: #7d5ab4;
        stroke-width: 3px;
      }
    </style>
    <linearGradient id="linear-gradient" x1="0.5" x2="0.5" y2="1" gradientUnits="objectBoundingBox">
      <stop offset="0" stop-color="#004aff" stop-opacity="0"/>
      <stop offset="1" stop-color="#004aff"/>
    </linearGradient>
  </defs>
  <g id="Group_2900" data-name="Group 2900" transform="translate(5189 -5624)">
    <rect id="Rectangle_1057" data-name="Rectangle 1057" class="cls-1" width="130" height="130" transform="translate(-5189 5624)"/>
    <circle id="Ellipse_209" data-name="Ellipse 209" class="cls-2" cx="46.5" cy="46.5" r="46.5" transform="translate(-5152 5643)"/>
    <g id="Group_2875" data-name="Group 2875" transform="translate(-5189.003 5638.402)">
      <path id="Path_3367" data-name="Path 3367" class="cls-3" d="M85.49,0c26.147.074,47.049,17.369,51.735,41.4a3.606,3.606,0,0,1-.669,2.789c-.967,1-2.492.074-2.827-1.636A47.636,47.636,0,0,0,124.8,22.39C102.822-6.434,57.856-.818,43.722,32.544c-.186.409-.3.818-.484,1.19-.484,1.153-1.153,1.971-2.529,1.451s-1.339-1.674-.93-2.789A47.682,47.682,0,0,1,47.665,18.82C57.967,6.509,71.245.372,85.49,0Z" transform="translate(-24.827)"/>
      <path id="Path_3368" data-name="Path 3368" class="cls-3" d="M84.384,195.963c-24.4-.074-46.007-17.964-49.95-41.433-.223-1.376-.186-2.6,1.413-2.9,1.636-.3,2.008,1.041,2.306,2.306,4.5,19.526,16.328,32.246,35.854,37.007,22.464,5.5,45.375-6.657,54.227-28.043.149-.335.26-.707.409-1.041.484-1.153,1.339-1.711,2.492-1.227a1.707,1.707,0,0,1,.893,2.6,102.663,102.663,0,0,1-5.207,10.042A50.845,50.845,0,0,1,84.384,195.963Z" transform="translate(-21.563 -95.208)"/>
      <path id="Path_3369" data-name="Path 3369" class="cls-4" d="M125.388,124.967a13.357,13.357,0,0,1-3.087-1.413c-3.422-2.566-6.732-5.281-9.968-8.034a2.533,2.533,0,0,1-.669-2.269,1.658,1.658,0,0,1,2.641-.6c2.9,2.232,5.765,4.463,8.629,6.732.484.372.967.781,1.451,1.153a2.177,2.177,0,0,0,3.422-.335l9.373-11.716c3.831-4.761,7.662-9.559,11.493-14.319a1.8,1.8,0,0,1,2.752-.446c1.041.781.893,1.822.112,2.789-2.008,2.529-4.017,5.021-6.025,7.55q-7.308,9.094-14.58,18.224A7.058,7.058,0,0,1,125.388,124.967Z" transform="translate(-70.08 -58.578)"/>
      <path id="Path_3370" data-name="Path 3370" class="cls-3" d="M273.25,128.3l10.935-10.042c.372-.335.669-.93,1.041-1a3.822,3.822,0,0,1,2.455.223c.409.3.335,1.562.074,2.269-.223.632-.967,1.079-1.488,1.636-3.05,3.161-6.1,6.36-9.149,9.484-2.12,2.194-4.091,2.417-6.323.372-3.831-3.5-7.55-7.1-11.2-10.786a2.628,2.628,0,0,1-.149-2.566c.781-1.116,1.934-.781,2.864.149,3.161,3.05,6.286,6.1,9.447,9.112.632.6,1.227,1.19,1.86,1.748A5.2,5.2,0,0,0,273.25,128.3Z" transform="translate(-162.786 -73.587)"/>
      <path id="Path_3371" data-name="Path 3371" class="cls-3" d="M14.507,118.417c-3.31,3.236-6.732,6.62-10.154,10-.335.335-.707.707-1.079,1.041a1.757,1.757,0,0,1-2.641.112,1.729,1.729,0,0,1,.112-2.752c3.756-3.682,7.439-7.439,11.269-11.083,1.785-1.711,3.98-1.6,5.8.186,3.682,3.645,7.327,7.327,10.86,11.121.484.521.186,1.748.26,2.6-.893,0-2.083.335-2.641-.074-1.822-1.451-3.385-3.236-5.1-4.835C19.045,122.657,16.888,120.649,14.507,118.417Z" transform="translate(0 -71.926)"/>
    </g>
  </g>
</svg>
