<svg id="Group_149" data-name="Group 149" xmlns="http://www.w3.org/2000/svg" xmlns:xlink="http://www.w3.org/1999/xlink" viewBox="0 0 149.999 49.713">
  <defs>
    <style>
      .cls-1 {
        fill: url(#linear-gradient);
      }

      .cls-2 {
        fill: #664cb2;
      }

      .cls-2, .cls-3 {
        opacity: 0.53;
      }

      .cls-3 {
        fill: #2f225e;
      }

      .cls-4 {
        fill: #6d47af;
        opacity: 0.47;
      }

      .cls-5 {
        fill: #6a187c;
        opacity: 0.29;
      }

      .cls-6 {
        fill: #3f3377;
        opacity: 0.44;
      }

      .cls-7 {
        fill: #7f76d2;
        opacity: 0.68;
      }

      .cls-8 {
        fill: #abaad6;
        opacity: 0.28;
      }

      .cls-9 {
        fill: #2c45af;
      }

      .cls-16, .cls-9 {
        opacity: 0.33;
      }

      .cls-10 {
        fill: #0f3b93;
      }

      .cls-10, .cls-12 {
        opacity: 0.94;
      }

      .cls-11, .cls-26 {
        fill: #2d55c2;
      }

      .cls-11 {
        opacity: 0.85;
      }

      .cls-12 {
        fill: #406aca;
      }

      .cls-13 {
        fill: #1157bc;
        opacity: 0.86;
      }

      .cls-14 {
        fill: #2a97e2;
        opacity: 0.76;
      }

      .cls-15 {
        fill: #33abe7;
        opacity: 0.88;
      }

      .cls-16 {
        fill: #007ec4;
      }

      .cls-17, .cls-19 {
        fill: #b34fc5;
      }

      .cls-17 {
        opacity: 0.11;
      }

      .cls-18 {
        fill: url(#linear-gradient-2);
      }

      .cls-19, .cls-23 {
        opacity: 0.25;
      }

      .cls-20 {
        fill: url(#linear-gradient-3);
      }

      .cls-21 {
        fill: #967dd3;
        opacity: 0.71;
      }

      .cls-22 {
        fill: #37a9e7;
        opacity: 0.51;
      }

      .cls-23 {
        fill: #4c5da5;
      }

      .cls-24 {
        fill: #2688c4;
        opacity: 0.61;
      }

      .cls-25 {
        fill: #6e81d9;
        opacity: 0.31;
      }

      .cls-26 {
        opacity: 0.82;
      }

      .cls-27 {
        fill: #3b69c1;
      }

      .cls-28 {
        fill: #3dbbee;
        opacity: 0.62;
      }

      .cls-29 {
        fill: #2666c9;
      }
    </style>
    <linearGradient id="linear-gradient" x1="0.108" y1="0.5" x2="0.871" y2="0.5" gradientUnits="objectBoundingBox">
      <stop offset="0" stop-color="#c629b4"/>
      <stop offset="0.327" stop-color="#9a57c5"/>
      <stop offset="1" stop-color="#36bfed"/>
    </linearGradient>
    <linearGradient id="linear-gradient-2" x1="0.155" y1="0.451" x2="0.914" y2="0.708" gradientUnits="objectBoundingBox">
      <stop offset="0" stop-color="#c047c1"/>
      <stop offset="0.939" stop-color="#4783d9"/>
    </linearGradient>
    <linearGradient id="linear-gradient-3" x1="-0.239" y1="0.606" x2="0.829" y2="0.407" xlink:href="#linear-gradient-2"/>
  </defs>
  <path id="Path_67" data-name="Path 67" class="cls-1" d="M46.744,1,37.226,20.42,26.23,1H13.594L0,32.482H12.691l8.1-18.818,8.928,15.95,1.575,2.813H44.009L59.354,1ZM35.557,23.647,37.363,25.7S35.585,23.7,35.557,23.647Z" transform="translate(0 -0.973)"/>
  <path id="Path_68" data-name="Path 68" class="cls-2" d="M497,1l5.033,8.971,2.161,3.693,1.668-3.8L509.637,1Z" transform="translate(-483.406 -0.973)"/>
  <path id="Path_69" data-name="Path 69" class="cls-3" d="M681,252.161,682.806,250l2.024,2.051-1.668,3.8Z" transform="translate(-662.374 -243.162)"/>
  <path id="Path_70" data-name="Path 70" class="cls-4" d="M497,0l6.838,6.811-1.805,2.161Z" transform="translate(-483.406)"/>
  <path id="Path_71" data-name="Path 71" class="cls-5" d="M0,351.51H12.691l8.1-18.818L18.627,329Z" transform="translate(0 -320.001)"/>
  <path id="Path_72" data-name="Path 72" class="cls-6" d="M747,7.811,752.8,1l-3.774,8.862Z" transform="translate(-726.568 -0.973)"/>
  <path id="Path_73" data-name="Path 73" class="cls-7" d="M760,328.8l1.668-3.8,6.62,7.166,2.215,15.4Z" transform="translate(-739.212 -316.111)"/>
  <path id="Path_74" data-name="Path 74" class="cls-8" d="M824.774,1,821,9.862l6.619,7.166Z" transform="translate(-798.544 -0.973)"/>
  <path id="Path_75" data-name="Path 75" class="cls-9" d="M1063,587l2.216,15.4,4.267-8.78Z" transform="translate(-1033.925 -570.945)"/>
  <path id="Path_76" data-name="Path 76" class="cls-10" d="M1150.072,904,1144,910.729h12.719Z" transform="translate(-1112.711 -879.274)"/>
  <path id="Path_77" data-name="Path 77" class="cls-11" d="M1148.268,829c.027.055,1.8,2.051,1.8,2.051L1144,837.779Z" transform="translate(-1112.711 -806.325)"/>
  <path id="Path_78" data-name="Path 78" class="cls-12" d="M1301.669,711,1300,714.227l1.806,2.051,1.749-2.051Z" transform="translate(-1264.443 -691.553)"/>
  <path id="Path_79" data-name="Path 79" class="cls-13" d="M1366,831.051l1.75-2.051,4.9,8.779Z" transform="translate(-1328.638 -806.325)"/>
  <path id="Path_80" data-name="Path 80" class="cls-14" d="M1430,580l6.21-7-1.313,15.782Z" transform="translate(-1390.885 -557.327)"/>
  <path id="Path_81" data-name="Path 81" class="cls-15" d="M1610.312,16.645,1624.344,1,1609,32.427Z" transform="translate(-1564.991 -0.973)"/>
  <path id="Path_82" data-name="Path 82" class="cls-16" d="M1361,20.42l1.888,3.228,6.21-7L1370.518,1Z" transform="translate(-1323.775 -0.973)"/>
  <path id="Path_83" data-name="Path 83" class="cls-17" d="M13.594,0l5.033,8.971L0,31.482Z"/>
  <path id="Path_84" data-name="Path 84" class="cls-18" d="M2196.285,1h-12.607L2170,32.482h12.611l8.148-18.955,10.5,18.736h12.582Z" transform="translate(-2110.647 -0.973)"/>
  <path id="Path_85" data-name="Path 85" class="cls-2" d="M2670,1l4.979,8.917,2.105,3.61,1.7-3.419L2682.611,1Z" transform="translate(-2596.972 -0.973)"/>
  <path id="Path_86" data-name="Path 86" class="cls-4" d="M2670,1l6.648,7.029-1.67,1.887Z" transform="translate(-2596.972 -0.973)"/>
  <path id="Path_87" data-name="Path 87" class="cls-3" d="M2852,259.887l1.67-1.887,2.133,2.079-1.7,3.419Z" transform="translate(-2773.992 -250.943)"/>
  <path id="Path_88" data-name="Path 88" class="cls-6" d="M2913,8.029,2918.961,1l-3.83,9.108Z" transform="translate(-2833.325 -0.973)"/>
  <path id="Path_89" data-name="Path 89" class="cls-19" d="M2170,32.482l18.652-22.565L2183.678,1Z" transform="translate(-2110.647 -0.973)"/>
  <path id="Path_90" data-name="Path 90" class="cls-5" d="M2170,349.565h12.611l8.148-18.955-2.107-3.61Z" transform="translate(-2110.647 -318.056)"/>
  <path id="Path_91" data-name="Path 91" class="cls-7" d="M2929,337.419l1.7-3.419,6.371,6.51,2.434,15.645Z" transform="translate(-2848.89 -324.865)"/>
  <path id="Path_92" data-name="Path 92" class="cls-8" d="M2991,10.108,2994.83,1l2.543,15.618Z" transform="translate(-2909.191 -0.973)"/>
  <path id="Path_93" data-name="Path 93" class="cls-9" d="M3224,572l2.438,15.645h12.58Z" transform="translate(-3135.817 -556.355)"/>
  <path id="Path_94" data-name="Path 94" class="cls-20" d="M3844.094,6l-9.652,19.42L3823.418,6H3811l17.5,31.345h12.582L3856.758,6Z" transform="translate(-3706.759 -5.836)"/>
  <path id="Path_95" data-name="Path 95" class="cls-21" d="M3811,6h12.418l2.816,16.247Z" transform="translate(-3706.759 -5.836)"/>
  <path id="Path_96" data-name="Path 96" class="cls-22" d="M4926.672,6,4911,37.345l1.527-15.508Z" transform="translate(-4776.678 -5.836)"/>
  <path id="Path_97" data-name="Path 97" class="cls-23" d="M4368,600l6.48,6.538-4.211,8.561Z" transform="translate(-4248.531 -583.589)"/>
  <path id="Path_98" data-name="Path 98" class="cls-24" d="M4744.27,585,4738,591.893l4.734,8.616Z" transform="translate(-4608.409 -569)"/>
  <path id="Path_99" data-name="Path 99" class="cls-25" d="M4265,6l11.02,19.42-1.723,3.364-6.48-6.537Z" transform="translate(-4148.345 -5.836)"/>
  <path id="Path_100" data-name="Path 100" class="cls-26" d="M4451,847.562l5.906-6.7-1.691-1.86Z" transform="translate(-4329.257 -816.052)"/>
  <path id="Path_101" data-name="Path 101" class="cls-26" d="M4673.676,845.616l-6.676-6.7,1.941-1.915Z" transform="translate(-4539.349 -814.106)"/>
  <path id="Path_102" data-name="Path 102" class="cls-27" d="M4606.723,716l1.918,3.31-1.945,1.915-1.7-1.86Z" transform="translate(-4479.048 -696.416)"/>
  <path id="Path_103" data-name="Path 103" class="cls-10" d="M4456.906,907,4451,913.7h12.582Z" transform="translate(-4329.257 -882.192)"/>
  <path id="Path_104" data-name="Path 104" class="cls-16" d="M4668,25.42,4677.656,6l-1.473,15.837-6.27,6.893Z" transform="translate(-4540.319 -5.836)"/>
  <path id="Path_105" data-name="Path 105" class="cls-28" d="M4968.48,6h12.66L4967,21.837Z" transform="translate(-4831.146 -5.836)"/>
  <path id="Path_106" data-name="Path 106" class="cls-29" d="M1582.035,1450.646a.233.233,0,0,1-.189-.1l-6.581-9.1v8.962a.232.232,0,1,1-.464,0v-9.683a.233.233,0,0,1,.421-.137l6.581,9.1v-8.964a.232.232,0,0,1,.465,0v9.683a.233.233,0,0,1-.161.222A.217.217,0,0,1,1582.035,1450.646Z" transform="translate(-1531.727 -1401.097)"/>
  <path id="Path_107" data-name="Path 107" class="cls-29" d="M3643.533,1451.147a.233.233,0,0,1-.187-.1l-6.578-9.1v8.964a.234.234,0,0,1-.469,0v-9.683a.232.232,0,0,1,.164-.222.24.24,0,0,1,.262.085l6.578,9.1v-8.962a.232.232,0,1,1,.465,0v9.683a.234.234,0,0,1-.16.221A.237.237,0,0,1,3643.533,1451.147Z" transform="translate(-3536.841 -1401.585)"/>
  <path id="Path_108" data-name="Path 108" class="cls-29" d="M1965.957,1458.33a.222.222,0,0,1-.082-.016.235.235,0,0,1-.135-.3l3.639-9.464a.237.237,0,0,1,.217-.149h0a.228.228,0,0,1,.215.147l3.721,9.463a.232.232,0,0,1-.432.169l-3.5-8.9-3.422,8.9A.236.236,0,0,1,1965.957,1458.33Z" transform="translate(-1911.958 -1408.785)"/>
  <path id="Path_109" data-name="Path 109" class="cls-29" d="M2273.961,1458.41h0a.235.235,0,0,1-.213-.143l-3.988-9.465a.228.228,0,0,1,.121-.3.234.234,0,0,1,.3.123l3.775,8.961,3.865-8.964a.237.237,0,0,1,.309-.12.234.234,0,0,1,.119.307l-4.078,9.463A.233.233,0,0,1,2273.961,1458.41Z" transform="translate(-2207.658 -1408.863)"/>
  <path id="Path_110" data-name="Path 110" class="cls-29" d="M2006.881,1698.965h-5.348a.232.232,0,1,1,0-.465h5.348a.232.232,0,0,1,0,.465Z" transform="translate(-1946.56 -1652.042)"/>
  <path id="Path_111" data-name="Path 111" class="cls-29" d="M3031.2,1452.793a4.9,4.9,0,1,1,4.9-4.9A4.9,4.9,0,0,1,3031.2,1452.793Zm0-9.327a4.431,4.431,0,1,0,4.432,4.431A4.437,4.437,0,0,0,3031.2,1443.466Z" transform="translate(-2943.523 -1403.532)"/>
  <path id="Path_112" data-name="Path 112" class="cls-29" d="M2633.2,1452.793a4.9,4.9,0,1,1,3.307-8.51.233.233,0,0,1-.316.342,4.43,4.43,0,1,0,.074,6.475.233.233,0,0,1,.328.007.236.236,0,0,1-.008.329A4.881,4.881,0,0,1,2633.2,1452.793Z" transform="translate(-2556.411 -1403.532)"/>
  <path id="Path_113" data-name="Path 113" class="cls-29" d="M3479.031,1446.922a.23.23,0,0,1-.23-.232v-9.956a.23.23,0,1,1,.461,0v9.956A.233.233,0,0,1,3479.031,1446.922Z" transform="translate(-3383.647 -1397.209)"/>
</svg>
