<svg xmlns="http://www.w3.org/2000/svg" xmlns:xlink="http://www.w3.org/1999/xlink" viewBox="0 0 108 108">
  <defs>
    <style>
      .cls-1, .cls-4, .cls-5 {
        fill: none;
      }

      .cls-2 {
        opacity: 0.12;
        fill: url(#linear-gradient);
      }

      .cls-3 {
        fill: #7d5ab5;
      }

      .cls-4, .cls-5 {
        stroke: #7d5ab5;
        stroke-width: 3px;
      }

      .cls-5 {
        stroke-linecap: round;
      }

      .cls-6 {
        stroke: none;
      }
    </style>
    <linearGradient id="linear-gradient" x1="0.5" x2="0.5" y2="1" gradientUnits="objectBoundingBox">
      <stop offset="0" stop-color="#004aff" stop-opacity="0"/>
      <stop offset="1" stop-color="#004aff"/>
    </linearGradient>
  </defs>
  <g id="Group_2558" data-name="Group 2558" transform="translate(-232 -4667)">
    <rect id="Rectangle_1058" data-name="Rectangle 1058" class="cls-1" width="108" height="108" transform="translate(232 4667)"/>
    <path id="Path_3295" data-name="Path 3295" class="cls-2" d="M36,0A36,36,0,1,1,0,36,36,36,0,0,1,36,0Z" transform="translate(268 4685)"/>
    <g id="Group_2550" data-name="Group 2550" transform="translate(3599 3324.989)">
      <path id="Path_3307" data-name="Path 3307" class="cls-3" d="M189.449,137.308a16.632,16.632,0,0,0-9.225-14.544c-6.045-3.218-12.108-2.771-17.873.93-1.544,1-2.567,1-3.311-.093-.725-1.06-.353-2.027,1.209-3.087a21.149,21.149,0,0,1,26.763,32.51c-1.023,1.023-2.195,1.135-3.013.316-.837-.856-.744-1.934.316-3.013C187.664,146.9,189.375,142.813,189.449,137.308Z" transform="translate(-3496.701 1259.605)"/>
      <path id="Path_3308" data-name="Path 3308" class="cls-3" d="M116.9,173.406a22.006,22.006,0,0,1,3.906-12.759,1.9,1.9,0,0,1,2.418-.8,1.873,1.873,0,0,1,1.1,2.139,3.363,3.363,0,0,1-.539,1.06,17.359,17.359,0,0,0,20.738,25.927c.26-.112.521-.223.781-.316a1.891,1.891,0,0,1,2.529,1.042,1.784,1.784,0,0,1-1.06,2.436,31.708,31.708,0,0,1-6.138,1.692A21.2,21.2,0,0,1,116.9,173.406Z" transform="translate(-3462.688 1224.752)"/>
      <path id="Path_3309" data-name="Path 3309" class="cls-3" d="M316.9,74.842A7.151,7.151,0,1,1,323.949,82,7.16,7.16,0,0,1,316.9,74.842Zm10.452-.037a3.311,3.311,0,0,0-6.621.037,3.315,3.315,0,0,0,3.385,3.329A3.28,3.28,0,0,0,327.352,74.8Z" transform="translate(-3625.491 1299.623)"/>
      <g id="Rectangle_1043" data-name="Rectangle 1043" class="cls-4" transform="translate(-3367 1354.178)">
        <rect class="cls-6" width="84.394" height="84.394" rx="23"/>
        <rect class="cls-1" x="1.5" y="1.5" width="81.394" height="81.394" rx="21.5"/>
      </g>
      <path id="Path_3310" data-name="Path 3310" class="cls-5" d="M-3508.986,1365.974c0-6.866,4.673-8.321,8.654-8.321" transform="translate(155.795 9.562)"/>
    </g>
  </g>
</svg>
